<?xml version="1.0" encoding="utf-8"?>
<!-- Generator: Adobe Illustrator 16.0.0, SVG Export Plug-In . SVG Version: 6.00 Build 0)  -->
<!DOCTYPE svg PUBLIC "-//W3C//DTD SVG 1.1//EN" "http://www.w3.org/Graphics/SVG/1.1/DTD/svg11.dtd">
<svg version="1.1" id="Layer_1" xmlns="http://www.w3.org/2000/svg" xmlns:xlink="http://www.w3.org/1999/xlink" x="0px" y="0px"
	 width="90px" height="70px" viewBox="0 0 90 70" enable-background="new 0 0 90 70" xml:space="preserve">
<g>
	<path fill="#5A9CE5" d="M3.236,63.562c0-0.777-0.021-1.432-0.049-1.977h1.777l0.084,0.73h0.047
		c0.213-0.301,0.719-0.859,1.717-0.859c0.744,0,1.32,0.342,1.566,0.93h0.023c0.223-0.309,0.494-0.529,0.801-0.693
		c0.293-0.152,0.635-0.236,1.023-0.236c1.244,0,1.965,0.908,1.965,2.518v3.398h-2.059v-3.08c0-0.719-0.215-1.135-0.686-1.135
		c-0.34,0-0.551,0.215-0.645,0.5c-0.047,0.117-0.061,0.295-0.061,0.424v3.291H6.684v-3.141c0-0.645-0.199-1.074-0.682-1.074
		c-0.377,0-0.564,0.287-0.648,0.473c-0.047,0.145-0.057,0.297-0.057,0.438v3.305H3.236V63.562z"/>
	<path fill="#5A9CE5" d="M16.789,63.785c0-0.326-0.152-0.943-0.822-0.943c-0.623,0-0.873,0.578-0.908,0.943H16.789z M15.086,65.217
		c0.068,0.463,0.738,0.723,1.494,0.723c0.539,0,1.057-0.061,1.574-0.229l0.27,1.416c-0.693,0.271-1.445,0.361-2.162,0.361
		c-2.035,0-3.189-1.115-3.189-2.949c0-1.342,0.871-3.082,3-3.082c1.871,0,2.67,1.375,2.67,2.963c0,0.34-0.045,0.656-0.08,0.797
		H15.086L15.086,65.217z"/>
	<path fill="#5A9CE5" d="M21.932,59.936l0.002,1.648h1.199v1.557h-1.199v1.658c0,0.682,0.15,0.961,0.67,0.961
		c0.244,0,0.326,0,0.506-0.049v1.615c-0.248,0.096-0.721,0.162-1.262,0.162c-0.623,0-1.141-0.219-1.447-0.527
		c-0.352-0.354-0.541-0.918-0.541-1.801v-2.02h-0.717v-1.557h0.717v-1.082L21.932,59.936z"/>
	<path fill="#5A9CE5" d="M24.143,63.535c0-0.914-0.01-1.467-0.047-1.951h1.812l0.082,1.049h0.047
		c0.305-0.881,1.035-1.178,1.541-1.178c0.188,0,0.27,0,0.424,0.037v1.984c-0.154-0.031-0.318-0.057-0.541-0.057
		c-0.625,0-1.045,0.258-1.166,0.73c-0.01,0.092-0.023,0.221-0.023,0.365v2.857h-2.129V63.535z"/>
	<path fill="#5A9CE5" d="M31.613,66.01c0.578,0,0.883-0.602,0.883-1.529c0-0.803-0.26-1.527-0.883-1.527
		c-0.705,0-0.941,0.762-0.941,1.527c0,0.871,0.283,1.529,0.93,1.529H31.613z M31.557,67.5c-1.73,0-3.074-1.094-3.074-2.971
		c0-1.852,1.213-3.074,3.189-3.074c1.814,0,3.012,1.223,3.012,2.965c0,2.104-1.506,3.08-3.117,3.08H31.557z"/>
	<path fill="#5A9CE5" d="M37.014,61.682l1.117,3.186c0.188,0.527,0.342,0.998,0.459,1.471h0.035
		c0.131-0.473,0.295-0.943,0.482-1.471l1.107-3.186h1.08l-2.234,5.689h-0.99l-2.164-5.689H37.014z"/>
	<path fill="#5A9CE5" d="M45.225,64.467c-1.129-0.025-2.41,0.176-2.41,1.283c0,0.684,0.447,0.986,0.963,0.986
		c0.754,0,1.236-0.473,1.4-0.951c0.035-0.105,0.047-0.225,0.047-0.332V64.467L45.225,64.467z M46.236,66.01
		c0,0.49,0.023,0.971,0.082,1.363h-0.93l-0.092-0.719h-0.035c-0.307,0.447-0.93,0.846-1.742,0.846c-1.152,0-1.74-0.809-1.74-1.635
		c0-1.377,1.223-2.129,3.422-2.117v-0.117c0-0.473-0.127-1.326-1.295-1.314c-0.539,0-1.092,0.148-1.492,0.418l-0.236-0.693
		c0.473-0.289,1.164-0.492,1.885-0.492c1.75,0,2.174,1.186,2.174,2.328V66.01L46.236,66.01z"/>
	<path fill="#5A9CE5" d="M47.895,63.219c0-0.6-0.012-1.07-0.047-1.537h0.916l0.062,0.924h0.021c0.283-0.529,0.941-1.057,1.883-1.057
		c0.789,0,2.012,0.467,2.012,2.424v3.398h-1.035v-3.283c0-0.918-0.342-1.695-1.316-1.695c-0.672,0-1.199,0.486-1.389,1.066
		c-0.049,0.127-0.072,0.312-0.072,0.475v3.438h-1.035V63.219L47.895,63.219z"/>
	<path fill="#5A9CE5" d="M58.484,67.158c-0.27,0.131-0.871,0.328-1.635,0.328c-1.719,0-2.836-1.162-2.836-2.904
		c0-1.75,1.199-3.033,3.059-3.033c0.611,0,1.15,0.15,1.436,0.305l-0.236,0.789c-0.246-0.129-0.635-0.271-1.199-0.271
		c-1.307,0-2.012,0.977-2.012,2.154c0,1.312,0.848,2.125,1.977,2.125c0.586,0,0.977-0.137,1.271-0.266L58.484,67.158z"/>
	<path fill="#5A9CE5" d="M61.99,66.725c0.988,0,1.729-0.926,1.727-2.227c0-0.963-0.482-2.174-1.705-2.174
		c-1.211,0-1.742,1.129-1.742,2.213c0,1.244,0.709,2.186,1.707,2.186h0.014V66.725z M61.943,67.5c-1.531,0-2.73-1.129-2.73-2.932
		c0-1.904,1.26-3.02,2.822-3.02c1.637,0,2.742,1.186,2.742,2.916c0,2.117-1.471,3.035-2.822,3.035H61.943z"/>
	<path fill="#5A9CE5" d="M70.85,65.809c0,0.598,0.01,1.115,0.047,1.562h-0.918l-0.059-0.928h-0.023
		c-0.26,0.457-0.873,1.057-1.883,1.057c-0.895,0-1.965-0.506-1.965-2.494v-3.324h1.035v3.137c0,1.082,0.342,1.826,1.27,1.826
		c0.695,0,1.176-0.484,1.365-0.955c0.059-0.141,0.094-0.326,0.094-0.529v-3.479h1.037V65.809z"/>
	<path fill="#5A9CE5" d="M72.967,61.682l1.117,3.186c0.189,0.527,0.34,0.998,0.459,1.465h0.035c0.129-0.467,0.295-0.938,0.482-1.465
		l1.107-3.186h1.08l-2.236,5.689h-0.986l-2.164-5.689H72.967z"/>
	<path fill="#5A9CE5" d="M81.719,63.973c0.012-0.662-0.27-1.684-1.424-1.684c-1.061,0-1.506,0.965-1.588,1.684H81.719z
		 M78.693,64.715c0.025,1.387,0.908,1.961,1.943,1.961c0.742,0,1.199-0.127,1.578-0.293l0.188,0.738
		c-0.365,0.164-1.002,0.365-1.906,0.365c-1.742,0-2.801-1.162-2.801-2.871c0-1.717,1.023-3.068,2.68-3.068
		c1.861,0,2.344,1.635,2.344,2.686c0,0.207-0.012,0.361-0.033,0.482H78.693z"/>
	<path fill="#5A9CE5" d="M84,63.453c0-0.67-0.01-1.248-0.045-1.771h0.904l0.049,1.109h0.037c0.254-0.764,0.889-1.242,1.586-1.242
		c0.105,0,0.189,0.012,0.281,0.02v0.979c-0.105-0.014-0.213-0.025-0.352-0.025c-0.729,0-1.248,0.559-1.389,1.322
		c-0.023,0.15-0.035,0.318-0.035,0.48v3.047H84V63.453L84,63.453z"/>
	<path fill="#FFFFFF" d="M72.816,30.488c0.002,15.463-12.531,27.994-27.99,27.994s-27.99-12.531-27.99-27.99
		C16.836,15.035,29.367,2.5,44.824,2.5C60.285,2.5,72.816,15.033,72.816,30.488z"/>
	<path fill="#246CA8" d="M44.863,56.443c9.533,0,17.854-5.154,22.348-12.822c-0.854-0.463-8.764-3.688-21.973-3.688
		c-12.635-0.088-18.346,2.213-22.746,3.65C26.984,51.275,35.316,56.443,44.863,56.443z"/>
	<path fill="#CDD5E8" d="M34.65,21.051c0.096,0.111,1.881-2.596,3.799-2.121c1.176,0.293,1.984-0.971,1.984-0.971
		s1.211-2.051,2.744-2.035c0.66,0.004,1.686,1.791,2.273,2.605c0.336,0.449,0.41,1.027,1.174-0.025
		c0.561-0.771,1.963-0.984,1.963-0.984s1.223-0.131,2.174,0.914c0.703,0.77,1.5,0.945,3.531,1.43
		c2.25,0.545,5.123,2.404,6.725,3.529c2.42-0.607,5.133-1.189,8.178-1.723C65.57,11.74,56.045,4.658,44.863,4.66
		c-10.996,0-20.6,6.988-24.285,16.912c1.137,0.182,4.508,0.746,8.615,1.707c0.277-0.246,1.074-0.814,2.84-1.328
		C33.686,21.473,34.727,21.135,34.65,21.051z"/>
	<path fill="#7CAD51" d="M69.867,23.816c-0.004-0.004-0.01-0.018-0.016-0.021c-10.23,1.566-22.506,7.346-22.506,7.346
		s6.633,3.648,9.998,6.828c0,0,10.234,0.045,12.305,0.08c0.721-2.375,1.107-4.889,1.107-7.496
		C70.756,28.223,70.445,25.967,69.867,23.816z"/>
	<path fill="#CDD5E8" d="M42.764,18.369c0,0,2.029,0.791,2.566,2.039c0.266,0.621-0.012,1.295,0.191,2.633
		c0.312,2.082,1.23,2.109,2.859,2.959c2.193,1.15,1.906,2.383,1.906,2.383s-2.67-1.906-5.287-2.768
		c-2.463-0.818-1.23-3.373-1.969-4.441c-1.072-1.561-2.383-0.27-2.328-0.857C40.795,19.383,42.764,18.369,42.764,18.369z"/>
	<path fill="#CDD5E8" d="M32.041,23.967c0,0,1.275-1.336,2.672-1.336c1.395,0,1.307-1.062,1.859-1.574
		c1.164-1.08,3.16-0.182,3.16-0.182s-0.43-0.086-1.982,1.15c-0.795,0.641-0.898,1.928-0.992,2.422
		c-0.078,0.42,0.744,1.584,0.744,1.584L32.041,23.967z"/>
	<path fill="#CDD5E8" d="M47.238,20.852c0,0,1.459,0.572,2.287,0.572s1.166-0.049,1.492-0.559c0.691-1.084,3.945,1.225,3.945,1.225
		s-2.805-0.861-3.723,0.381c-0.471,0.639,0.754,1.357,0.955,1.814c0.762,1.715-0.477,2.098-0.477,2.098L47.238,20.852z"/>
	<path fill="#7CAD51" d="M23.844,38.047l0.006-3.111l2.971-0.01l0.004,1.41l1.439-0.002l0.021-3.143l1.447-0.668l1.273-0.004
		l1.383,0.656l-0.002,1.979l0.844,0.006v-3.939l2.006,0.014l0.01,3.311l0.979,0.006v2.26h0.93c0,0,0.014-2.775,0.018-2.984
		c1.242-0.012,2.988-0.002,2.988-0.002v2.48l1.303,0.035l0.029-0.766l1.973-0.031l0.031,2.449l10.451,0.014
		c-1.221-0.922-17.689-13.092-34.105-14.1c-0.564,2.115-0.869,4.34-0.869,6.646c0,2.607,0.391,5.119,1.105,7.494H23.844z"/>
</g>
</svg>
