<?xml version="1.0" encoding="utf-8"?>
<!-- Generator: Adobe Illustrator 16.0.0, SVG Export Plug-In . SVG Version: 6.00 Build 0)  -->
<!DOCTYPE svg PUBLIC "-//W3C//DTD SVG 1.1//EN" "http://www.w3.org/Graphics/SVG/1.1/DTD/svg11.dtd">
<svg version="1.1" id="Layer_1" xmlns="http://www.w3.org/2000/svg" xmlns:xlink="http://www.w3.org/1999/xlink" x="0px" y="0px"
	 width="150px" height="35px" viewBox="0 0 150 35" enable-background="new 0 0 150 35" xml:space="preserve">
<g>
	<path fill="#0084A9" d="M98.741,10.078h-1.125c-0.295,0-0.539-0.243-0.539-0.54c0-0.296,0.243-0.539,0.539-0.539h3.419
		c0.296,0,0.54,0.243,0.54,0.539c0,0.297-0.244,0.54-0.54,0.54h-1.124v3.699c0,0.326-0.259,0.585-0.585,0.585
		s-0.585-0.259-0.585-0.585V10.078L98.741,10.078z"/>
	<path fill="#0084A9" d="M102.279,9.538c0-0.326,0.259-0.585,0.585-0.585s0.585,0.259,0.585,0.585v1.565h2.158V9.538
		c0-0.326,0.259-0.585,0.586-0.585c0.326,0,0.584,0.259,0.584,0.585v4.239c0,0.326-0.258,0.585-0.584,0.585
		c-0.327,0-0.586-0.259-0.586-0.585v-1.596h-2.158v1.596c0,0.326-0.259,0.585-0.585,0.585s-0.585-0.259-0.585-0.585V9.538
		L102.279,9.538z"/>
	<path fill="#0084A9" d="M107.909,13.732V9.584c0-0.327,0.258-0.585,0.584-0.585h2.949c0.288,0,0.523,0.235,0.523,0.524
		s-0.236,0.517-0.523,0.517h-2.371v1.079h2.029c0.287,0,0.522,0.235,0.522,0.524c0,0.288-0.235,0.516-0.522,0.516h-2.029v1.117
		h2.409c0.289,0,0.523,0.235,0.523,0.524s-0.234,0.517-0.523,0.517h-2.987C108.167,14.317,107.909,14.059,107.909,13.732
		L107.909,13.732z"/>
	<path fill="#0084A9" d="M97.502,16.599c0-0.326,0.258-0.585,0.585-0.585h0.122c0.28,0,0.448,0.138,0.608,0.342l2.256,2.964v-2.743
		c0-0.318,0.257-0.577,0.577-0.577c0.319,0,0.578,0.259,0.578,0.577v4.231c0,0.327-0.259,0.586-0.585,0.586h-0.038
		c-0.281,0-0.449-0.137-0.609-0.343l-2.339-3.068v2.849c0,0.319-0.258,0.577-0.577,0.577c-0.32,0-0.578-0.258-0.578-0.577V16.599
		L97.502,16.599z"/>
	<path fill="#0084A9" d="M103.496,20.778V16.63c0-0.327,0.258-0.585,0.585-0.585h2.948c0.287,0,0.523,0.235,0.523,0.524
		c0,0.288-0.236,0.517-0.523,0.517h-2.371v1.078h2.029c0.288,0,0.522,0.236,0.522,0.524s-0.235,0.518-0.522,0.518h-2.029v1.116
		h2.408c0.29,0,0.524,0.235,0.524,0.523c0,0.289-0.234,0.517-0.524,0.517h-2.984C103.753,21.362,103.496,21.104,103.496,20.778
		L103.496,20.778z"/>
	<path fill="#0084A9" d="M110.789,18.727c0.584,0,0.926-0.35,0.926-0.805v-0.016c0-0.524-0.364-0.806-0.95-0.806h-0.905v1.626
		H110.789L110.789,18.727z M108.691,16.63c0-0.327,0.259-0.585,0.586-0.585h1.587c1.269,0,2.037,0.751,2.037,1.838v0.016
		c0,1.23-0.958,1.868-2.151,1.868h-0.89v1.058c0,0.326-0.257,0.584-0.583,0.584c-0.327,0-0.586-0.258-0.586-0.584V16.63
		L108.691,16.63z"/>
	<path fill="#0084A9" d="M114.942,17.123h-1.125c-0.295,0-0.539-0.242-0.539-0.538c0-0.297,0.243-0.54,0.539-0.54h3.419
		c0.296,0,0.54,0.243,0.54,0.54c0,0.296-0.244,0.538-0.54,0.538h-1.125v3.701c0,0.326-0.257,0.584-0.583,0.584
		s-0.586-0.258-0.586-0.584V17.123L114.942,17.123z"/>
	<path fill="#0084A9" d="M118.619,16.585c0-0.327,0.259-0.586,0.586-0.586c0.326,0,0.584,0.259,0.584,0.586v4.239
		c0,0.326-0.258,0.584-0.584,0.584c-0.327,0-0.586-0.258-0.586-0.584V16.585L118.619,16.585z"/>
	<path fill="#0084A9" d="M121.095,20.801c-0.129-0.091-0.22-0.258-0.22-0.44c0-0.304,0.243-0.54,0.547-0.54
		c0.152,0,0.259,0.053,0.334,0.107c0.402,0.296,0.843,0.479,1.358,0.479c0.479,0,0.77-0.19,0.77-0.502v-0.016
		c0-0.297-0.184-0.448-1.072-0.676c-1.072-0.273-1.762-0.569-1.762-1.626v-0.016c0-0.964,0.775-1.603,1.861-1.603
		c0.646,0,1.208,0.167,1.687,0.471c0.129,0.076,0.258,0.236,0.258,0.463c0,0.305-0.244,0.54-0.548,0.54
		c-0.114,0-0.204-0.03-0.296-0.083c-0.387-0.228-0.752-0.357-1.116-0.357c-0.448,0-0.684,0.205-0.684,0.463v0.017
		c0,0.349,0.227,0.463,1.147,0.698c1.078,0.281,1.687,0.668,1.687,1.596v0.015c0,1.056-0.806,1.649-1.954,1.649
		C122.394,21.439,121.688,21.226,121.095,20.801L121.095,20.801z"/>
	<path fill="#0084A9" d="M97.502,23.675c0-0.326,0.258-0.585,0.585-0.585h2.977c0.297,0,0.534,0.236,0.534,0.533
		c0,0.295-0.236,0.531-0.534,0.531h-2.392v1.132h2.052c0.295,0,0.531,0.235,0.531,0.531c0,0.297-0.236,0.532-0.531,0.532h-2.052
		v1.52c0,0.326-0.259,0.585-0.585,0.585c-0.327,0-0.585-0.259-0.585-0.585V23.675L97.502,23.675z"/>
	<path fill="#0084A9" d="M106.603,25.765v-0.016c0-0.911-0.668-1.672-1.609-1.672c-0.942,0-1.597,0.746-1.597,1.656v0.016
		c0,0.912,0.668,1.672,1.611,1.672C105.95,27.421,106.603,26.676,106.603,25.765L106.603,25.765z M102.175,25.765v-0.016
		c0-1.512,1.191-2.75,2.833-2.75c1.64,0,2.819,1.224,2.819,2.734v0.016c0,1.512-1.193,2.751-2.833,2.751
		C103.351,28.5,102.175,27.276,102.175,25.765L102.175,25.765z"/>
	<path fill="#0084A9" d="M108.684,26.129V23.63c0-0.327,0.258-0.586,0.584-0.586c0.328,0,0.586,0.259,0.586,0.586v2.469
		c0,0.867,0.433,1.314,1.148,1.314c0.712,0,1.147-0.434,1.147-1.276V23.63c0-0.327,0.258-0.586,0.584-0.586s0.585,0.259,0.585,0.586
		v2.462c0,1.609-0.904,2.4-2.333,2.4C109.558,28.492,108.684,27.694,108.684,26.129L108.684,26.129z"/>
	<path fill="#0084A9" d="M114.486,23.645c0-0.326,0.26-0.585,0.586-0.585h0.122c0.281,0,0.448,0.137,0.608,0.342l2.256,2.963v-2.741
		c0-0.32,0.258-0.579,0.577-0.579c0.319,0,0.578,0.259,0.578,0.579v4.23c0,0.327-0.258,0.585-0.584,0.585h-0.038
		c-0.281,0-0.449-0.136-0.607-0.341l-2.341-3.07v2.849c0,0.319-0.259,0.578-0.577,0.578c-0.319,0-0.579-0.259-0.579-0.578V23.645
		L114.486,23.645z"/>
	<path fill="#0084A9" d="M122.501,27.352c0.957,0,1.603-0.645,1.603-1.587v-0.016c0-0.942-0.646-1.603-1.603-1.603h-0.905v3.205
		H122.501L122.501,27.352z M120.427,23.675c0-0.326,0.258-0.585,0.584-0.585h1.49c1.671,0,2.826,1.147,2.826,2.644v0.016
		c0,1.497-1.154,2.659-2.826,2.659h-1.49c-0.326,0-0.584-0.259-0.584-0.585V23.675L120.427,23.675z"/>
	<path fill="#0084A9" d="M128.911,26.183l-0.736-1.756l-0.737,1.756H128.911L128.911,26.183z M125.624,27.655l1.853-4.186
		c0.13-0.289,0.364-0.464,0.685-0.464h0.067c0.32,0,0.548,0.175,0.678,0.464l1.853,4.186c0.039,0.084,0.061,0.161,0.061,0.236
		c0,0.312-0.243,0.562-0.555,0.562c-0.272,0-0.456-0.159-0.562-0.403l-0.357-0.835h-2.34l-0.372,0.873
		c-0.099,0.229-0.296,0.365-0.539,0.365c-0.305,0-0.541-0.243-0.541-0.547C125.553,27.823,125.584,27.739,125.624,27.655
		L125.624,27.655z"/>
	<path fill="#0084A9" d="M132.133,24.17h-1.125c-0.297,0-0.539-0.244-0.539-0.54c0-0.297,0.242-0.54,0.539-0.54h3.418
		c0.297,0,0.54,0.243,0.54,0.54c0,0.296-0.242,0.54-0.54,0.54h-1.125v3.699c0,0.326-0.258,0.585-0.586,0.585
		c-0.326,0-0.583-0.259-0.583-0.585V24.17L132.133,24.17z"/>
	<path fill="#0084A9" d="M135.868,23.63c0-0.327,0.26-0.586,0.586-0.586c0.327,0,0.585,0.259,0.585,0.586v4.239
		c0,0.326-0.258,0.585-0.585,0.585c-0.326,0-0.586-0.259-0.586-0.585V23.63L135.868,23.63z"/>
	<path fill="#0084A9" d="M142.508,25.765v-0.016c0-0.911-0.668-1.672-1.61-1.672s-1.595,0.746-1.595,1.656v0.016
		c0,0.912,0.668,1.672,1.611,1.672C141.855,27.421,142.508,26.676,142.508,25.765L142.508,25.765z M138.08,25.765v-0.016
		c0-1.512,1.193-2.75,2.834-2.75c1.64,0,2.818,1.224,2.818,2.734v0.016c0,1.512-1.192,2.751-2.834,2.751
		C139.257,28.5,138.08,27.276,138.08,25.765L138.08,25.765z"/>
	<path fill="#0084A9" d="M144.695,23.645c0-0.326,0.26-0.585,0.586-0.585h0.121c0.282,0,0.449,0.137,0.609,0.342l2.256,2.963v-2.741
		c0-0.32,0.258-0.579,0.577-0.579c0.319,0,0.579,0.259,0.579,0.579v4.23c0,0.327-0.259,0.585-0.585,0.585h-0.038
		c-0.281,0-0.449-0.136-0.608-0.341l-2.34-3.07v2.849c0,0.319-0.259,0.578-0.577,0.578c-0.319,0-0.579-0.259-0.579-0.578V23.645
		L144.695,23.645z"/>
	<path fill="#231F20" d="M0.578,10.372c0-0.782,0.632-1.452,1.415-1.452c0.819,0,1.453,0.633,1.453,1.452v2.085
		c1.266-2.085,3.276-3.76,6.59-3.76c4.654,0,7.372,3.127,7.372,7.707v10.687c0,0.819-0.633,1.451-1.415,1.451
		c-0.82,0-1.453-0.632-1.453-1.451v-9.979c0-3.574-1.936-5.809-5.324-5.809c-3.314,0-5.771,2.421-5.771,6.032v9.756
		c0,0.819-0.597,1.451-1.416,1.451c-0.819,0-1.452-0.632-1.452-1.451V10.372L0.578,10.372z"/>
	<path fill="#231F20" d="M34.833,17.67c-0.298-3.5-2.31-6.553-6.145-6.553c-3.351,0-5.883,2.792-6.255,6.553H34.833L34.833,17.67z
		 M29.135,28.804c-5.287,0-9.606-4.06-9.606-10.017v-0.074c0-5.548,3.91-10.016,9.234-10.016c5.697,0,8.936,4.653,8.936,9.755
		c0,0.781-0.633,1.34-1.34,1.34H22.433c0.409,4.17,3.351,6.517,6.777,6.517c2.382,0,4.133-0.931,5.547-2.234
		c0.224-0.186,0.484-0.335,0.819-0.335c0.707,0,1.266,0.559,1.266,1.229c0,0.335-0.148,0.671-0.447,0.931
		C34.571,27.648,32.411,28.804,29.135,28.804L29.135,28.804z"/>
	<path fill="#231F20" d="M56.464,18.787v-0.074c0-4.543-3.128-7.447-6.777-7.447c-3.575,0-6.963,3.016-6.963,7.41v0.074
		c0,4.468,3.389,7.447,6.963,7.447C53.41,26.197,56.464,23.441,56.464,18.787L56.464,18.787z M39.969,10.372
		c0-0.819,0.632-1.452,1.415-1.452c0.819,0,1.452,0.633,1.452,1.452v2.606c1.564-2.309,3.835-4.281,7.372-4.281
		c4.617,0,9.197,3.647,9.197,9.979v0.074c0,6.293-4.542,10.016-9.197,10.016c-3.574,0-5.883-1.937-7.372-4.095v8.377
		c0,0.819-0.596,1.452-1.415,1.452c-0.819,0-1.452-0.633-1.452-1.452V10.372L39.969,10.372z"/>
	<path fill="#231F20" d="M62.418,23.255V11.638h-1.564c-0.669,0-1.266-0.596-1.266-1.266c0-0.708,0.597-1.267,1.266-1.267h1.564
		V4.563c0-0.782,0.597-1.452,1.415-1.452c0.782,0,1.452,0.67,1.452,1.452v4.542h4.989c0.708,0,1.303,0.596,1.303,1.267
		c0,0.708-0.595,1.266-1.303,1.266h-4.989v11.245c0,2.346,1.304,3.202,3.239,3.202c1.006,0,1.526-0.26,1.75-0.26
		c0.67,0,1.229,0.559,1.229,1.228c0,0.521-0.335,0.931-0.819,1.117c-0.819,0.335-1.713,0.521-2.831,0.521
		C64.765,28.691,62.418,27.165,62.418,23.255L62.418,23.255z"/>
	<path fill="#231F20" d="M73.923,10.372c0-0.782,0.632-1.452,1.415-1.452c0.819,0,1.452,0.633,1.452,1.452v16.719
		c0,0.819-0.596,1.451-1.415,1.451c-0.819,0-1.452-0.632-1.452-1.451V10.372L73.923,10.372z M73.662,3.074
		c0-0.931,0.745-1.526,1.676-1.526c0.968,0,1.712,0.596,1.712,1.526v0.484c0,0.894-0.744,1.525-1.712,1.525
		c-0.931,0-1.676-0.632-1.676-1.525V3.074L73.662,3.074z"/>
	<path fill="#231F20" d="M79.618,26.309c-0.26-0.187-0.521-0.559-0.521-1.043c0-0.67,0.559-1.229,1.266-1.229
		c0.261,0,0.522,0.075,0.708,0.224c1.973,1.341,4.022,2.048,6.107,2.048c2.309,0,3.983-1.192,3.983-3.054v-0.074
		c0-1.936-2.271-2.681-4.803-3.389c-3.016-0.855-6.367-1.898-6.367-5.436v-0.075c0-3.312,2.755-5.511,6.554-5.511
		c2.048,0,4.282,0.634,6.144,1.639c0.371,0.224,0.707,0.633,0.707,1.191c0,0.671-0.559,1.229-1.265,1.229
		c-0.261,0-0.485-0.075-0.633-0.149c-1.639-0.931-3.389-1.489-5.027-1.489c-2.271,0-3.723,1.191-3.723,2.793v0.073
		c0,1.825,2.382,2.532,4.952,3.314c2.979,0.894,6.181,2.048,6.181,5.511v0.075c0,3.647-3.017,5.771-6.852,5.771
		C84.496,28.729,81.703,27.798,79.618,26.309L79.618,26.309z"/>
</g>
</svg>
