<?xml version="1.0" encoding="utf-8"?>
<!-- Generator: Adobe Illustrator 16.0.0, SVG Export Plug-In . SVG Version: 6.00 Build 0)  -->
<!DOCTYPE svg PUBLIC "-//W3C//DTD SVG 1.1//EN" "http://www.w3.org/Graphics/SVG/1.1/DTD/svg11.dtd">
<svg version="1.1" id="Layer_1" xmlns="http://www.w3.org/2000/svg" xmlns:xlink="http://www.w3.org/1999/xlink" x="0px" y="0px"
	 width="120px" height="45px" viewBox="0 0 120 45" enable-background="new 0 0 120 45" xml:space="preserve">
<g>
	<path fill-rule="evenodd" clip-rule="evenodd" fill="#7DAED3" d="M116.171,12.477l1.077,0.564
		c-0.352,0.695-0.762,1.256-1.225,1.682c-0.464,0.426-0.984,0.752-1.562,0.975c-0.581,0.221-1.234,0.332-1.965,0.332
		c-1.621,0-2.889-0.531-3.803-1.596c-0.916-1.061-1.371-2.262-1.371-3.604c0-1.258,0.385-2.383,1.158-3.369
		c0.982-1.254,2.298-1.881,3.941-1.881c1.693,0,3.047,0.643,4.058,1.928c0.719,0.908,1.084,2.039,1.098,3.398h-8.943
		c0.026,1.154,0.396,2.098,1.108,2.838c0.714,0.736,1.594,1.105,2.643,1.105c0.506,0,1-0.086,1.479-0.262
		c0.475-0.178,0.883-0.41,1.219-0.703C115.42,13.594,115.78,13.125,116.171,12.477L116.171,12.477z M116.171,9.799
		c-0.172-0.682-0.419-1.227-0.746-1.635c-0.325-0.406-0.757-0.734-1.294-0.984c-0.537-0.252-1.1-0.377-1.69-0.377
		c-0.975,0-1.812,0.314-2.516,0.941c-0.511,0.457-0.898,1.143-1.16,2.055H116.171L116.171,9.799L116.171,9.799z M103.906,2.146
		h1.277v3.689h2.028v1.105h-2.028v8.83h-1.277v-8.83h-1.746V5.836h1.746V2.146L103.906,2.146L103.906,2.146z M87.485,2.146h1.277
		v3.689h2.028v1.105h-2.028v8.83h-1.277v-8.83H85.74V5.836h1.745V2.146L87.485,2.146L87.485,2.146z M84.328,6.924l-0.82,0.85
		c-0.685-0.664-1.353-0.996-2.006-0.996c-0.417,0-0.772,0.137-1.067,0.41c-0.297,0.273-0.445,0.594-0.445,0.959
		c0,0.324,0.122,0.631,0.369,0.924c0.243,0.297,0.756,0.648,1.536,1.049c0.951,0.494,1.598,0.969,1.94,1.426
		c0.334,0.463,0.503,0.984,0.503,1.561c0,0.818-0.287,1.508-0.859,2.074c-0.575,0.566-1.29,0.85-2.149,0.85
		c-0.572,0-1.122-0.125-1.646-0.375c-0.519-0.248-0.952-0.594-1.292-1.031l0.804-0.914c0.652,0.736,1.345,1.107,2.078,1.107
		c0.513,0,0.949-0.166,1.309-0.496c0.36-0.328,0.541-0.713,0.541-1.16c0-0.365-0.121-0.689-0.356-0.977
		c-0.238-0.279-0.775-0.633-1.61-1.059c-0.899-0.463-1.509-0.92-1.832-1.371c-0.323-0.449-0.486-0.965-0.486-1.543
		c0-0.754,0.261-1.383,0.775-1.883C80.129,5.83,80.78,5.58,81.565,5.58C82.481,5.58,83.402,6.029,84.328,6.924L84.328,6.924
		L84.328,6.924z M76.151,12.477l1.076,0.564c-0.352,0.695-0.762,1.256-1.225,1.682s-0.985,0.752-1.563,0.975
		c-0.579,0.221-1.233,0.332-1.964,0.332c-1.622,0-2.889-0.531-3.805-1.596c-0.912-1.061-1.371-2.262-1.371-3.604
		c0-1.258,0.387-2.383,1.161-3.369c0.981-1.254,2.296-1.881,3.938-1.881c1.695,0,3.049,0.643,4.062,1.928
		c0.717,0.908,1.082,2.039,1.094,3.398h-8.941c0.025,1.154,0.395,2.098,1.107,2.838c0.713,0.736,1.594,1.105,2.643,1.105
		c0.506,0,0.998-0.086,1.477-0.262c0.479-0.178,0.885-0.41,1.222-0.703C75.397,13.594,75.76,13.125,76.151,12.477L76.151,12.477
		L76.151,12.477z M76.151,9.799c-0.172-0.682-0.42-1.227-0.746-1.635c-0.326-0.406-0.759-0.734-1.294-0.984
		c-0.536-0.252-1.101-0.377-1.692-0.377c-0.977,0-1.812,0.314-2.516,0.941c-0.511,0.457-0.898,1.143-1.16,2.055H76.151L76.151,9.799
		L76.151,9.799z M59.155,2h1.278v13.771h-1.278V2L59.155,2L59.155,2z M101.409,11.045v4.727h-1.26v-1.705
		c-0.535,0.65-1.137,1.141-1.805,1.469c-0.665,0.328-1.396,0.494-2.186,0.494c-1.407,0-2.608-0.51-3.604-1.529
		s-1.494-2.26-1.494-3.723c0-1.43,0.503-2.654,1.508-3.672c1.003-1.016,2.213-1.525,3.625-1.525c0.815,0,1.689,0.172,2.35,0.52
		c0.662,0.346,2.865,1.475,2.865,4.74V11.045L101.409,11.045L101.409,11.045z M96.3,6.812c-0.712,0-1.367,0.176-1.97,0.525
		c-0.604,0.35-1.082,0.842-1.438,1.473c-0.356,0.633-0.534,1.301-0.534,2.008c0,0.699,0.179,1.369,0.54,2.008
		c0.355,0.639,0.839,1.135,1.443,1.49c0.605,0.357,1.257,0.533,1.949,0.533c0.697,0,1.362-0.174,1.987-0.527
		c0.627-0.354,1.112-0.83,1.447-1.434c0.338-0.602,0.506-1.279,0.506-2.033c0-1.15-0.378-2.109-1.136-2.883
		C98.338,7.201,97.407,6.814,96.3,6.812L96.3,6.812L96.3,6.812z M56.952,11.045v4.727h-1.26v-1.705
		c-0.537,0.65-1.14,1.141-1.805,1.469c-0.666,0.328-1.396,0.494-2.188,0.494c-1.406,0-2.607-0.51-3.604-1.529
		c-0.995-1.02-1.493-2.26-1.493-3.723c0-1.43,0.503-2.654,1.507-3.672c1.006-1.016,2.214-1.525,3.627-1.525
		c0.814,0,1.689,0.172,2.35,0.52c0.66,0.346,2.865,1.475,2.865,4.74V11.045L56.952,11.045L56.952,11.045z M51.841,6.812
		c-0.711,0-1.367,0.176-1.969,0.525c-0.604,0.35-1.082,0.842-1.438,1.473c-0.354,0.633-0.534,1.301-0.534,2.008
		c0,0.699,0.18,1.369,0.539,2.008s0.842,1.135,1.445,1.49c0.607,0.357,1.256,0.533,1.949,0.533c0.699,0,1.361-0.174,1.988-0.527
		c0.626-0.354,1.108-0.83,1.446-1.434c0.339-0.602,0.506-1.279,0.506-2.033c0-1.15-0.378-2.109-1.136-2.883
		C53.881,7.201,52.947,6.814,51.841,6.812L51.841,6.812L51.841,6.812z M43.714,12.477c-0.39,0.648-0.752,1.117-1.088,1.408
		c-0.335,0.293-0.741,0.525-1.221,0.703c-0.479,0.176-0.971,0.262-1.477,0.262c-1.049,0-1.93-0.369-2.643-1.105
		c-0.714-0.74-1.083-1.684-1.105-2.838h8.939c-0.012-1.359-0.377-2.49-1.097-3.398c-1.012-1.285-2.364-1.928-4.059-1.928
		c-1.646,0-2.958,0.627-3.94,1.881c-0.773,0.986-1.16,2.111-1.16,3.369c0,1.342,0.457,2.543,1.371,3.604
		c0.914,1.064,2.183,1.596,3.803,1.596c0.732,0,1.387-0.111,1.965-0.332c0.58-0.223,1.101-0.549,1.564-0.975
		c0.463-0.426,0.87-0.986,1.225-1.682L43.714,12.477L43.714,12.477L43.714,12.477z M43.714,9.799
		c-0.17-0.682-0.42-1.227-0.744-1.635c-0.326-0.406-0.759-0.734-1.295-0.984c-0.535-0.252-1.102-0.377-1.691-0.377
		c-0.977,0-1.812,0.314-2.516,0.941c-0.512,0.457-0.898,1.143-1.16,2.055H43.714L43.714,9.799L43.714,9.799z M29.733,5.836h1.305
		v1.453c0.393-0.574,0.802-1,1.234-1.283c0.432-0.283,0.883-0.426,1.352-0.426c0.353,0,0.73,0.113,1.132,0.338l-0.667,1.078
		c-0.268-0.115-0.492-0.172-0.674-0.172c-0.427,0-0.838,0.174-1.234,0.523s-0.697,0.893-0.903,1.631
		c-0.159,0.566-0.239,1.711-0.239,3.434v3.359h-1.305V5.836L29.733,5.836L29.733,5.836z"/>
	<path fill-rule="evenodd" clip-rule="evenodd" fill="#799900" d="M108.703,22.283h1.279v1.781c0.51-0.682,1.077-1.191,1.698-1.531
		c0.62-0.336,1.296-0.506,2.028-0.506c0.742,0,1.4,0.188,1.978,0.566c0.574,0.377,0.999,0.887,1.271,1.525
		c0.273,0.641,0.412,1.635,0.412,2.986v5.115h-1.277v-4.74c0-1.146-0.048-1.91-0.143-2.295c-0.149-0.656-0.433-1.15-0.853-1.482
		c-0.421-0.334-0.969-0.498-1.646-0.498c-0.773,0-1.466,0.256-2.077,0.766c-0.613,0.514-1.016,1.146-1.21,1.9
		c-0.122,0.494-0.183,1.396-0.183,2.703v3.646h-1.279V22.283L108.703,22.283z M101.982,22.027c1.53,0,2.801,0.555,3.805,1.662
		c0.918,1.012,1.373,2.207,1.373,3.59c0,1.389-0.483,2.602-1.449,3.639c-0.968,1.039-2.211,1.557-3.729,1.557
		c-1.523,0-2.771-0.518-3.737-1.557c-0.967-1.037-1.449-2.25-1.449-3.639c0-1.377,0.456-2.568,1.371-3.582
		C99.174,22.584,100.445,22.027,101.982,22.027L101.982,22.027L101.982,22.027z M101.978,23.277c-1.062,0-1.978,0.395-2.739,1.178
		c-0.765,0.787-1.146,1.736-1.146,2.85c0,0.721,0.174,1.391,0.521,2.012c0.349,0.621,0.82,1.102,1.412,1.438
		c0.593,0.34,1.243,0.506,1.952,0.506s1.36-0.166,1.952-0.506c0.593-0.336,1.064-0.816,1.413-1.438
		c0.348-0.621,0.521-1.291,0.521-2.012c0-1.113-0.385-2.062-1.15-2.85C103.947,23.672,103.033,23.277,101.978,23.277L101.978,23.277
		L101.978,23.277z M94.524,19.066c0.289,0,0.537,0.104,0.746,0.311c0.205,0.207,0.308,0.457,0.308,0.748
		c0,0.287-0.103,0.533-0.308,0.74c-0.209,0.207-0.457,0.312-0.746,0.312c-0.285-0.002-0.531-0.105-0.737-0.312
		s-0.309-0.453-0.309-0.74c0-0.291,0.103-0.541,0.309-0.748S94.239,19.066,94.524,19.066L94.524,19.066L94.524,19.066z
		 M93.89,22.283h1.278v9.938H93.89V22.283L93.89,22.283L93.89,22.283z M89.421,18.594h1.277v3.689h1.645v1.105h-1.645v8.832h-1.277
		v-8.832h-1.745v-1.105h1.745V18.594L89.421,18.594L89.421,18.594z M55.535,22.283h1.278v1.781c0.512-0.682,1.078-1.191,1.699-1.531
		c0.621-0.336,1.297-0.506,2.028-0.506c0.741,0,1.401,0.188,1.976,0.566c0.576,0.377,1,0.887,1.275,1.525
		c0.274,0.641,0.412,1.635,0.412,2.986v5.115h-1.28v-4.74c0-1.146-0.049-1.91-0.142-2.295c-0.148-0.656-0.433-1.15-0.852-1.482
		c-0.421-0.334-0.969-0.498-1.646-0.498c-0.773,0-1.466,0.256-2.079,0.766c-0.611,0.514-1.014,1.146-1.209,1.9
		c-0.121,0.494-0.184,1.396-0.184,2.703v3.646h-1.278V22.283L55.535,22.283L55.535,22.283z M44.804,22.283h1.277v4.641
		c0,1.131,0.062,1.91,0.184,2.336c0.184,0.609,0.533,1.092,1.049,1.445c0.515,0.352,1.129,0.529,1.842,0.529
		s1.318-0.174,1.816-0.518c0.497-0.346,0.84-0.795,1.029-1.355c0.127-0.385,0.189-1.195,0.189-2.438v-4.641h1.308v4.877
		c0,1.371-0.161,2.402-0.479,3.096c-0.319,0.695-0.802,1.236-1.444,1.631c-0.643,0.393-1.447,0.588-2.416,0.588
		s-1.775-0.195-2.424-0.588c-0.649-0.395-1.133-0.941-1.452-1.645s-0.479-1.762-0.479-3.174V22.283L44.804,22.283L44.804,22.283z
		 M38.36,22.027c1.529,0,2.799,0.555,3.805,1.662c0.916,1.012,1.371,2.207,1.371,3.59c0,1.389-0.48,2.602-1.449,3.639
		c-0.965,1.039-2.209,1.557-3.727,1.557c-1.526,0-2.771-0.518-3.739-1.557c-0.966-1.037-1.45-2.25-1.45-3.639
		c0-1.377,0.458-2.568,1.373-3.582C35.55,22.584,36.823,22.027,38.36,22.027L38.36,22.027L38.36,22.027z M38.355,23.277
		c-1.064,0-1.978,0.395-2.741,1.178c-0.764,0.787-1.146,1.736-1.146,2.85c0,0.721,0.174,1.391,0.521,2.012
		c0.349,0.621,0.817,1.102,1.411,1.438c0.594,0.34,1.246,0.506,1.954,0.506c0.709,0,1.357-0.166,1.95-0.506
		c0.594-0.336,1.066-0.816,1.412-1.438c0.35-0.621,0.523-1.291,0.523-2.012c0-1.113-0.384-2.062-1.15-2.85
		C40.325,23.672,39.411,23.277,38.355,23.277L38.355,23.277L38.355,23.277z M33.224,18.447v1.252
		c-0.472-0.201-0.873-0.301-1.207-0.301c-0.249,0-0.456,0.049-0.621,0.15c-0.165,0.1-0.268,0.215-0.311,0.346
		s-0.062,0.48-0.062,1.045l-0.002,1.344h2.074v1.105h-2.076l-0.006,8.832h-1.279v-8.832h-1.307v-1.105h1.307V20.73
		c0-0.711,0.065-1.221,0.197-1.525c0.129-0.305,0.352-0.551,0.666-0.734c0.314-0.188,0.691-0.281,1.137-0.281
		C32.147,18.189,32.644,18.277,33.224,18.447L33.224,18.447L33.224,18.447z M75.907,27.209c0,3.266-2.203,4.395-2.865,4.742
		c-0.66,0.348-1.535,0.518-2.35,0.518c-1.412,0-2.623-0.51-3.627-1.525c-1.005-1.016-1.508-2.24-1.508-3.672
		c0-1.461,0.498-2.701,1.492-3.721c0.997-1.02,2.199-1.531,3.605-1.531c0.791,0,1.521,0.166,2.186,0.496
		c0.667,0.326,1.271,0.816,1.806,1.469v-5.412h1.261v8.432V27.209L75.907,27.209L75.907,27.209z M73.592,30.078
		c0.758-0.773,1.136-1.734,1.136-2.883c0-0.754-0.17-1.434-0.507-2.035s-0.819-1.08-1.446-1.434
		c-0.625-0.352-1.289-0.527-1.988-0.527c-0.691,0-1.34,0.176-1.947,0.533c-0.605,0.355-1.086,0.854-1.445,1.494
		c-0.359,0.635-0.539,1.305-0.539,2.006c0,0.705,0.18,1.375,0.533,2.006c0.356,0.633,0.837,1.123,1.438,1.473
		c0.603,0.35,1.258,0.525,1.971,0.525C71.903,31.236,72.835,30.85,73.592,30.078L73.592,30.078L73.592,30.078z M87.343,27.49v4.73
		h-1.26v-1.709c-0.535,0.652-1.138,1.143-1.804,1.471c-0.667,0.328-1.397,0.492-2.188,0.492c-1.405,0-2.606-0.508-3.602-1.529
		c-0.996-1.018-1.494-2.26-1.494-3.721c0-1.43,0.502-2.656,1.51-3.672c1.002-1.018,2.212-1.525,3.624-1.525
		c0.816,0,1.69,0.172,2.351,0.518c0.66,0.348,2.863,1.477,2.863,4.74V27.49L87.343,27.49L87.343,27.49z M82.234,23.262
		c-0.713,0-1.367,0.174-1.97,0.523c-0.603,0.348-1.083,0.84-1.437,1.473c-0.356,0.631-0.536,1.303-0.536,2.008
		c0,0.699,0.182,1.369,0.54,2.006c0.357,0.639,0.841,1.137,1.445,1.492c0.605,0.355,1.254,0.533,1.947,0.533
		c0.7,0,1.363-0.178,1.987-0.527c0.628-0.352,1.109-0.832,1.447-1.434c0.337-0.602,0.506-1.281,0.506-2.033
		c0-1.15-0.377-2.111-1.135-2.883C84.273,23.645,83.34,23.262,82.234,23.262L82.234,23.262L82.234,23.262z"/>
	<path fill-rule="evenodd" clip-rule="evenodd" fill="#939598" d="M32.868,39.982c0-1.668-4.605-3.018-10.285-3.018
		c-5.682,0-10.288,1.35-10.288,3.018c0,1.666,4.606,3.018,10.288,3.018C28.263,43,32.868,41.648,32.868,39.982L32.868,39.982z"/>
	<path fill-rule="evenodd" clip-rule="evenodd" fill="#D18A00" d="M18.329,33.492c0-1.309-3.621-2.373-8.092-2.373
		s-8.093,1.064-8.093,2.373c0,1.312,3.622,2.375,8.093,2.375S18.329,34.805,18.329,33.492L18.329,33.492z"/>
	<path fill-rule="evenodd" clip-rule="evenodd" fill="#EBB76E" d="M22.655,24.578c0-1.084-2.993-1.961-6.689-1.961
		c-3.695,0-6.689,0.877-6.689,1.961s2.994,1.963,6.689,1.963C19.662,26.541,22.655,25.662,22.655,24.578L22.655,24.578z"/>
	<path fill="#6D6E71" d="M62.618,39.113c0,0.09-0.021,0.166-0.058,0.232c-0.038,0.066-0.095,0.117-0.169,0.154
		c-0.072,0.037-0.164,0.055-0.271,0.057h-0.732v-0.885h0.732c0.106,0,0.198,0.018,0.271,0.055c0.074,0.037,0.131,0.09,0.169,0.156
		C62.598,38.947,62.618,39.023,62.618,39.113L62.618,39.113z M62.673,40.699c0,0.09-0.02,0.168-0.057,0.24
		c-0.035,0.072-0.09,0.129-0.164,0.17c-0.076,0.043-0.17,0.064-0.283,0.066h-0.78V40.23h0.78c0.113,0,0.207,0.023,0.283,0.064
		c0.074,0.043,0.129,0.098,0.164,0.168C62.653,40.535,62.673,40.613,62.673,40.699L62.673,40.699L62.673,40.699z M63.422,40.738
		c-0.001-0.127-0.019-0.24-0.05-0.336c-0.032-0.096-0.076-0.18-0.127-0.248c-0.054-0.068-0.109-0.125-0.172-0.172
		c-0.061-0.045-0.121-0.082-0.18-0.107c0.049-0.023,0.102-0.057,0.154-0.102c0.055-0.047,0.107-0.104,0.156-0.17
		s0.087-0.145,0.117-0.232c0.03-0.086,0.047-0.184,0.047-0.289c0-0.221-0.047-0.412-0.142-0.574
		c-0.093-0.16-0.228-0.285-0.403-0.373c-0.178-0.086-0.393-0.133-0.643-0.133h-1.544v3.844h1.608c0.171,0,0.331-0.025,0.474-0.074
		c0.143-0.045,0.267-0.117,0.372-0.209c0.104-0.096,0.188-0.211,0.244-0.348C63.394,41.076,63.421,40.918,63.422,40.738
		L63.422,40.738L63.422,40.738z"/>
	<path fill="#6D6E71" d="M66.813,39.178c-0.002,0.102-0.023,0.188-0.07,0.266c-0.041,0.074-0.105,0.135-0.188,0.176
		c-0.082,0.043-0.176,0.066-0.288,0.068h-0.706v-1.016h0.706c0.112,0.002,0.206,0.023,0.288,0.064s0.146,0.104,0.188,0.178
		C66.79,38.99,66.812,39.078,66.813,39.178L66.813,39.178z M67.72,41.846l-0.858-1.658c0.093-0.033,0.183-0.08,0.267-0.137
		c0.085-0.061,0.158-0.133,0.225-0.215c0.064-0.084,0.117-0.182,0.153-0.291c0.038-0.109,0.058-0.232,0.058-0.367
		c0-0.162-0.028-0.312-0.084-0.455c-0.057-0.141-0.138-0.266-0.246-0.373c-0.107-0.109-0.236-0.193-0.393-0.254
		c-0.152-0.062-0.328-0.094-0.523-0.094H64.81v3.844h0.752v-1.533h0.539l0.75,1.533H67.72L67.72,41.846L67.72,41.846z"/>
	<polygon fill="#6D6E71" points="69.712,41.846 69.712,38.002 68.962,38.002 68.962,41.846 69.712,41.846 	"/>
	<polygon fill="#6D6E71" points="73.702,38.672 73.702,38.002 70.944,38.002 70.944,38.672 71.949,38.672 71.949,41.846 
		72.698,41.846 72.698,38.672 73.702,38.672 	"/>
	<polygon fill="#6D6E71" points="75.685,41.846 75.685,38.002 74.935,38.002 74.935,41.846 75.685,41.846 	"/>
	<path fill="#6D6E71" d="M79.686,40.711c0-0.172-0.023-0.324-0.071-0.463c-0.049-0.137-0.123-0.254-0.225-0.352
		c-0.079-0.076-0.18-0.139-0.298-0.188c-0.117-0.049-0.263-0.086-0.438-0.109L78.2,39.535c-0.076-0.012-0.148-0.031-0.207-0.057
		c-0.062-0.027-0.111-0.059-0.148-0.096c-0.041-0.039-0.07-0.082-0.088-0.129s-0.025-0.096-0.025-0.145
		c0-0.09,0.023-0.172,0.064-0.244c0.043-0.074,0.111-0.133,0.199-0.176c0.086-0.043,0.197-0.064,0.33-0.066
		c0.086-0.002,0.174,0.004,0.264,0.018c0.091,0.012,0.18,0.037,0.268,0.074c0.091,0.039,0.176,0.096,0.258,0.172l0.475-0.471
		c-0.11-0.105-0.228-0.189-0.351-0.256c-0.124-0.064-0.26-0.115-0.406-0.145c-0.148-0.031-0.312-0.047-0.485-0.047
		c-0.207,0.002-0.395,0.031-0.559,0.088c-0.166,0.055-0.307,0.135-0.422,0.238s-0.205,0.227-0.264,0.369
		c-0.062,0.143-0.094,0.299-0.094,0.473c0,0.16,0.021,0.303,0.068,0.43c0.045,0.125,0.113,0.232,0.207,0.326
		c0.086,0.082,0.191,0.15,0.312,0.201c0.125,0.055,0.266,0.092,0.432,0.115l0.463,0.064c0.061,0.01,0.11,0.02,0.152,0.033
		c0.042,0.01,0.077,0.025,0.108,0.043c0.028,0.016,0.057,0.035,0.082,0.061c0.039,0.037,0.068,0.084,0.089,0.139
		c0.02,0.055,0.029,0.115,0.029,0.186c-0.002,0.152-0.059,0.271-0.174,0.352c-0.116,0.08-0.285,0.121-0.506,0.123
		c-0.119,0-0.234-0.012-0.348-0.031c-0.109-0.02-0.215-0.055-0.312-0.102c-0.1-0.047-0.189-0.111-0.27-0.191l-0.486,0.486
		c0.125,0.125,0.26,0.225,0.402,0.301c0.143,0.072,0.297,0.127,0.463,0.158s0.346,0.049,0.539,0.047c0.203,0,0.39-0.025,0.562-0.076
		c0.171-0.053,0.322-0.129,0.45-0.227c0.13-0.102,0.229-0.223,0.304-0.365C79.647,41.062,79.684,40.898,79.686,40.711L79.686,40.711
		z"/>
	<polygon fill="#6D6E71" points="83.816,41.846 83.816,38.002 83.064,38.002 83.064,39.572 81.766,39.572 81.766,38.002 
		81.014,38.002 81.014,41.846 81.766,41.846 81.766,40.236 83.064,40.236 83.064,41.846 83.816,41.846 	"/>
	<path fill="#6D6E71" d="M90.364,40.662h-0.762c-0.027,0.111-0.067,0.205-0.123,0.289c-0.057,0.08-0.128,0.145-0.215,0.188
		c-0.086,0.045-0.189,0.068-0.31,0.07c-0.104,0-0.194-0.018-0.273-0.051c-0.081-0.033-0.152-0.082-0.207-0.148
		c-0.038-0.041-0.071-0.086-0.096-0.137c-0.023-0.051-0.044-0.115-0.056-0.189c-0.015-0.078-0.024-0.178-0.03-0.301
		c-0.006-0.121-0.007-0.275-0.007-0.459c0-0.186,0.001-0.34,0.007-0.461c0.006-0.123,0.016-0.221,0.03-0.299
		c0.012-0.076,0.032-0.141,0.056-0.189c0.024-0.051,0.058-0.096,0.096-0.135c0.055-0.068,0.126-0.117,0.207-0.15
		c0.079-0.033,0.17-0.051,0.273-0.051c0.12,0.002,0.224,0.023,0.31,0.068c0.087,0.043,0.158,0.109,0.215,0.189
		c0.056,0.082,0.096,0.178,0.123,0.287h0.762c-0.046-0.262-0.132-0.482-0.261-0.662s-0.291-0.318-0.487-0.412
		c-0.197-0.092-0.418-0.141-0.666-0.141c-0.411,0-0.755,0.141-1.037,0.422c-0.084,0.084-0.15,0.172-0.202,0.268
		s-0.088,0.199-0.109,0.311c-0.045,0.215-0.066,0.533-0.066,0.955c0,0.42,0.021,0.738,0.066,0.955
		c0.021,0.107,0.058,0.209,0.109,0.307s0.118,0.188,0.202,0.271c0.282,0.279,0.626,0.42,1.037,0.42c0.245,0,0.467-0.049,0.664-0.141
		c0.196-0.094,0.357-0.23,0.486-0.41C90.232,41.145,90.318,40.926,90.364,40.662L90.364,40.662z"/>
	<path fill="#6D6E71" d="M93.42,39.924c0,0.184-0.004,0.336-0.008,0.457c-0.007,0.123-0.018,0.223-0.032,0.301
		c-0.012,0.074-0.033,0.137-0.057,0.188c-0.026,0.051-0.057,0.096-0.094,0.133c-0.054,0.062-0.121,0.113-0.201,0.15
		c-0.082,0.035-0.175,0.055-0.278,0.057c-0.102-0.002-0.194-0.021-0.277-0.057c-0.084-0.037-0.152-0.088-0.206-0.15
		c-0.038-0.037-0.067-0.082-0.093-0.133c-0.024-0.051-0.043-0.113-0.056-0.188c-0.015-0.078-0.024-0.178-0.027-0.301
		c-0.006-0.121-0.01-0.273-0.01-0.457c0-0.186,0.004-0.338,0.01-0.459c0.003-0.123,0.013-0.221,0.027-0.299
		c0.013-0.076,0.031-0.141,0.056-0.189c0.025-0.049,0.055-0.094,0.093-0.133c0.054-0.064,0.122-0.111,0.206-0.148
		c0.083-0.039,0.176-0.055,0.277-0.057c0.104,0.002,0.196,0.018,0.278,0.057c0.08,0.037,0.147,0.084,0.201,0.148
		c0.037,0.039,0.067,0.084,0.094,0.133c0.023,0.049,0.045,0.113,0.057,0.189c0.015,0.078,0.025,0.176,0.032,0.299
		C93.416,39.586,93.42,39.738,93.42,39.924L93.42,39.924z M94.17,39.924c0-0.166,0-0.32-0.007-0.467
		c-0.004-0.143-0.016-0.277-0.039-0.402c-0.022-0.125-0.06-0.244-0.111-0.354c-0.056-0.111-0.129-0.213-0.226-0.311
		c-0.133-0.135-0.285-0.24-0.455-0.312c-0.169-0.07-0.364-0.107-0.582-0.109c-0.217,0.002-0.413,0.039-0.584,0.109
		c-0.17,0.072-0.325,0.178-0.457,0.312c-0.098,0.098-0.17,0.199-0.223,0.311c-0.054,0.109-0.09,0.229-0.113,0.354
		c-0.021,0.125-0.034,0.26-0.038,0.402c-0.003,0.146-0.005,0.301-0.005,0.467c0,0.164,0.002,0.32,0.005,0.463
		c0.004,0.146,0.018,0.279,0.038,0.406c0.023,0.125,0.06,0.244,0.113,0.352c0.053,0.111,0.125,0.213,0.223,0.312
		c0.132,0.135,0.287,0.238,0.457,0.309c0.171,0.076,0.367,0.111,0.584,0.111c0.218,0,0.413-0.035,0.582-0.111
		c0.17-0.07,0.322-0.174,0.455-0.309c0.097-0.1,0.17-0.201,0.226-0.312c0.052-0.107,0.089-0.227,0.111-0.352
		c0.023-0.127,0.035-0.26,0.039-0.406C94.17,40.244,94.17,40.088,94.17,39.924L94.17,39.924L94.17,39.924z"/>
	<polygon fill="#6D6E71" points="98.052,41.846 98.052,41.176 96.31,41.176 96.31,38.002 95.559,38.002 95.559,41.846 
		98.052,41.846 	"/>
	<path fill="#6D6E71" d="M101.987,40.529v-2.527h-0.744v2.5c0,0.148-0.029,0.273-0.085,0.379c-0.054,0.105-0.132,0.186-0.231,0.242
		s-0.218,0.084-0.353,0.086c-0.136-0.002-0.252-0.029-0.352-0.086s-0.178-0.137-0.23-0.242c-0.054-0.105-0.082-0.23-0.082-0.379
		v-2.5h-0.751v2.527c0.001,0.203,0.038,0.387,0.11,0.553c0.073,0.166,0.172,0.307,0.303,0.426c0.129,0.117,0.277,0.209,0.447,0.273
		c0.173,0.064,0.355,0.096,0.555,0.096c0.197,0,0.382-0.031,0.553-0.096c0.173-0.064,0.32-0.156,0.45-0.273
		c0.128-0.119,0.228-0.26,0.3-0.426C101.951,40.916,101.986,40.732,101.987,40.529L101.987,40.529z"/>
	<polygon fill="#6D6E71" points="106.928,41.846 106.928,38.002 106.188,38.002 105.188,40.08 104.186,38.002 103.446,38.002 
		103.446,41.846 104.197,41.846 104.197,39.605 104.937,41.062 105.443,41.062 106.176,39.605 106.176,41.846 106.928,41.846 	"/>
	<path fill="#6D6E71" d="M110.427,39.113c0,0.09-0.02,0.166-0.059,0.232c-0.038,0.066-0.095,0.117-0.168,0.154
		c-0.074,0.037-0.165,0.055-0.271,0.057h-0.733v-0.885h0.733c0.105,0,0.196,0.018,0.271,0.055c0.073,0.037,0.13,0.09,0.168,0.156
		C110.407,38.947,110.427,39.023,110.427,39.113L110.427,39.113z M110.479,40.699c0,0.09-0.016,0.168-0.054,0.24
		c-0.034,0.072-0.091,0.129-0.164,0.17c-0.075,0.043-0.17,0.064-0.282,0.066h-0.782V40.23h0.782c0.112,0,0.207,0.023,0.282,0.064
		c0.073,0.043,0.13,0.098,0.164,0.168C110.463,40.535,110.479,40.613,110.479,40.699L110.479,40.699L110.479,40.699z M111.23,40.738
		c-0.002-0.127-0.018-0.24-0.05-0.336s-0.074-0.18-0.127-0.248c-0.055-0.068-0.109-0.125-0.172-0.172
		c-0.06-0.045-0.121-0.082-0.182-0.107c0.05-0.023,0.102-0.057,0.158-0.102c0.054-0.047,0.106-0.104,0.152-0.17
		c0.051-0.066,0.089-0.145,0.119-0.232c0.028-0.086,0.044-0.184,0.048-0.289c-0.004-0.221-0.049-0.412-0.143-0.574
		c-0.094-0.16-0.229-0.285-0.406-0.373c-0.174-0.086-0.39-0.133-0.641-0.133h-1.542v3.844h1.607c0.171,0,0.33-0.025,0.473-0.074
		c0.144-0.045,0.267-0.117,0.373-0.209c0.106-0.096,0.186-0.211,0.245-0.348C111.202,41.076,111.229,40.918,111.23,40.738
		L111.23,40.738L111.23,40.738z"/>
	<polygon fill="#6D6E71" points="113.369,41.846 113.369,38.002 112.619,38.002 112.619,41.846 113.369,41.846 	"/>
	<path fill="#6D6E71" d="M116.646,40.533h-0.955l0.486-1.396L116.646,40.533L116.646,40.533z M117.855,41.846l-1.403-3.844h-0.589
		l-1.396,3.844h0.782l0.231-0.682h1.366l0.229,0.682H117.855L117.855,41.846L117.855,41.846z"/>
</g>
</svg>
