<?xml version="1.0" encoding="UTF-8" standalone="no"?>
<svg
   xmlns:dc="http://purl.org/dc/elements/1.1/"
   xmlns:cc="http://creativecommons.org/ns#"
   xmlns:rdf="http://www.w3.org/1999/02/22-rdf-syntax-ns#"
   xmlns:svg="http://www.w3.org/2000/svg"
   xmlns="http://www.w3.org/2000/svg"
   xml:space="preserve"
   enable-background="new 0 0 85 85"
   viewBox="0 0 85 85"
   y="0px"
   x="0px"
   id="Слой_1"
   version="1.1"><metadata
     id="metadata37"><rdf:RDF><cc:Work
         rdf:about=""><dc:format>image/svg+xml</dc:format><dc:type
           rdf:resource="http://purl.org/dc/dcmitype/StillImage" /></cc:Work></rdf:RDF></metadata><defs
     id="defs35" /><g
     id="g30"><rect
       id="rect2"
       height="18"
       width="18"
       fill="#267DBA"
       y="60.6"
       x="24.5" /><rect
       id="rect4"
       height="18"
       width="18"
       fill="#4298D3"
       y="42.6"
       x="24.5" /><rect
       id="rect6"
       height="18"
       width="18"
       fill="#E47A09"
       y="24.6"
       x="24.5" /><rect
       id="rect8"
       height="18"
       width="18"
       fill="#D14C16"
       y="6.6"
       x="24.5" /><rect
       id="rect10"
       height="18"
       width="18"
       fill="#A07AB4"
       y="60.6"
       x="42.5" /><rect
       id="rect12"
       height="18"
       width="18"
       fill="#E83C36"
       y="6.6"
       x="42.5" /><rect
       id="rect14"
       height="18"
       width="18"
       fill="#8E4292"
       y="60.6"
       x="60.5" /><rect
       id="rect16"
       height="18"
       width="18"
       fill="#CA2E26"
       y="6.6"
       x="60.5" /><rect
       id="rect18"
       height="18"
       width="18"
       fill="#2CB195"
       y="42.6"
       x="6.5" /><rect
       id="rect20"
       height="18"
       width="18"
       fill="#089B7F"
       y="24.6"
       x="6.5" /><rect
       id="rect22"
       height="18"
       width="18"
       fill="#CFD2BE"
       y="24.6"
       x="42.5" /><polyline
       id="polyline24"
       points="78.5,60.6 60.5,60.6 60.5,42.6 78.5,42.6  "
       fill="#F5F7E2" /><polyline
       id="polyline26"
       points="60.5,60.6 42.5,60.6 42.5,42.6 60.5,42.6  "
       fill="#E9EED8" /><polyline
       id="polyline28"
       points="78.5,42.6 60.5,42.6 60.5,24.6 78.5,24.6  "
       fill="#E9EED8" /></g></svg>