<?xml version="1.0" encoding="UTF-8" standalone="no"?>
<!DOCTYPE svg PUBLIC "-//W3C//DTD SVG 1.1//EN" "http://www.w3.org/Graphics/SVG/1.1/DTD/svg11.dtd">
<svg width="100%" height="100%" viewBox="0 0 100 69" version="1.1" xmlns="http://www.w3.org/2000/svg" xmlns:xlink="http://www.w3.org/1999/xlink" xml:space="preserve" style="fill-rule:evenodd;clip-rule:evenodd;stroke-linejoin:round;stroke-miterlimit:1.41421;">
    <g id="Artboard1" transform="matrix(1,0,0,1,0,-14.9959)">
        <rect x="0" y="14.996" width="100" height="68.022" style="fill:none;"/>
        <path d="M50,75.2C40.8,75.2 31.6,72.6 31.6,66.9C31.6,60.5 34.9,54.7 40.2,51.3C38.1,48.9 36.9,45.8 36.9,42.6C36.9,35.4 42.8,29.5 50,29.5C57.2,29.5 63.1,35.4 63.1,42.6C63.1,45.8 61.9,48.9 59.8,51.3C65.1,54.7 68.4,60.5 68.4,66.9C68.4,72.7 59.2,75.2 50,75.2ZM50,31.9C44.1,31.9 39.3,36.7 39.3,42.6C39.3,45.7 40.6,48.6 43,50.7C43.3,51 43.5,51.4 43.4,51.8C43.4,52.2 43.1,52.5 42.8,52.7C37.4,55.4 34.1,60.9 34.1,66.9C34.1,70.3 41,72.8 50.1,72.8C59.2,72.8 66.1,70.3 66.1,66.9C66.1,60.9 62.8,55.4 57.4,52.7C57,52.5 56.8,52.2 56.8,51.8C56.8,51.4 56.9,51 57.2,50.7C59.5,48.7 60.9,45.7 60.9,42.6C60.7,36.7 55.9,31.9 50,31.9ZM87.6,43.6C89.4,41.5 90.4,38.9 90.4,36.2C90.4,29.9 85.3,24.8 79,24.8C72.7,24.8 67.6,29.9 67.6,36.2C67.6,38.9 68.6,41.6 70.4,43.6C67.2,45.6 64.9,48.7 63.8,52.2C64.5,52.9 65.2,53.6 65.8,54.3C66.6,50.3 69.2,46.8 72.9,44.9C73.3,44.7 73.5,44.4 73.5,44C73.5,43.6 73.4,43.2 73.1,42.9C71.1,41.2 70,38.7 70,36.1C70,31.1 74,27.1 79,27.1C84,27.1 88,31.1 88,36.1C88,38.7 86.9,41.2 84.9,42.9C84.6,43.2 84.4,43.6 84.5,44C84.5,44.4 84.8,44.7 85.1,44.9C89.7,47.2 92.5,51.8 92.5,56.9C92.5,59.6 86.6,61.8 79,61.8C74.9,61.8 71.3,61.2 68.8,60.1C69.1,61 69.3,61.9 69.4,62.9C72.2,63.8 75.6,64.2 79,64.2C86.9,64.2 94.9,61.9 94.9,56.9C94.9,51.5 92.2,46.5 87.6,43.6ZM31.2,60.2C28.7,61.2 25.1,61.9 21,61.9C13.4,61.9 7.5,59.7 7.5,57C7.5,51.9 10.3,47.3 14.9,45C15.3,44.8 15.5,44.5 15.5,44.1C15.5,43.7 15.4,43.3 15.1,43C13.1,41.3 12,38.8 12,36.2C12,31.2 16,27.2 21,27.2C26,27.2 30,31.2 30,36.2C30,38.8 28.9,41.3 26.9,43C26.6,43.3 26.4,43.7 26.5,44.1C26.5,44.5 26.8,44.8 27.1,45C30.9,46.9 33.4,50.4 34.2,54.4C34.8,53.6 35.4,52.9 36.2,52.3C35.1,48.8 32.8,45.7 29.6,43.7C31.4,41.6 32.4,39 32.4,36.3C32.4,30 27.3,24.9 21,24.9C14.7,24.9 9.6,29.9 9.6,36.2C9.6,38.9 10.6,41.6 12.4,43.6C7.8,46.5 5.1,51.5 5.1,57C5.1,62 13.1,64.3 21,64.3C24.4,64.3 27.8,63.9 30.6,63C30.7,62.1 31,61.1 31.2,60.2Z" style="fill:white;fill-rule:nonzero;"/>
    </g>
</svg>
