<?xml version="1.0" encoding="utf-8"?>
<!-- Generator: Adobe Illustrator 15.0.2, SVG Export Plug-In . SVG Version: 6.00 Build 0)  -->
<!DOCTYPE svg PUBLIC "-//W3C//DTD SVG 1.1//EN" "http://www.w3.org/Graphics/SVG/1.1/DTD/svg11.dtd">
<svg version="1.1" id="Layer_1" xmlns="http://www.w3.org/2000/svg" xmlns:xlink="http://www.w3.org/1999/xlink" x="0px" y="0px"
	 width="260px" height="33.637px" viewBox="0 0 260 33.637" enable-background="new 0 0 260 33.637" xml:space="preserve">
<rect fill="#3B8FE2" width="52" height="13.5"/>
<rect x="208" fill="#FFF5B9" width="52" height="13.5"/>
<rect x="156" fill="#FDD25D" width="52" height="13.5"/>
<rect x="104" fill="#FDB22F" width="52" height="13.5"/>
<rect x="52" fill="#27E2AC" width="52" height="13.5"/>
<g>
	<path fill="#FFFFFF" d="M204.544,28.08h-1.154v1.869h-1.342V28.08h-3.914v-1.061l3.914-5.66h1.342v5.578h1.154V28.08z
		 M202.048,26.937v-2.15c0-0.766,0.02-1.393,0.059-1.881h-0.047c-0.109,0.258-0.281,0.57-0.516,0.938l-2.127,3.094H202.048z"/>
	<path fill="#FFFFFF" d="M211.089,25.666c0,1.488-0.239,2.594-0.718,3.316s-1.21,1.084-2.194,1.084
		c-0.953,0-1.676-0.373-2.168-1.119s-0.738-1.84-0.738-3.281c0-1.512,0.239-2.626,0.718-3.343s1.208-1.075,2.188-1.075
		c0.957,0,1.682,0.375,2.174,1.125S211.089,24.22,211.089,25.666z M206.665,25.666c0,1.168,0.12,2.002,0.36,2.502
		s0.624,0.75,1.151,0.75s0.913-0.254,1.157-0.762s0.366-1.338,0.366-2.49c0-1.148-0.122-1.979-0.366-2.493s-0.63-0.771-1.157-0.771
		s-0.911,0.252-1.151,0.756S206.665,24.498,206.665,25.666z"/>
	<path fill="#FFFFFF" d="M217.938,25.666c0,1.488-0.239,2.594-0.718,3.316s-1.21,1.084-2.194,1.084
		c-0.953,0-1.676-0.373-2.168-1.119s-0.738-1.84-0.738-3.281c0-1.512,0.239-2.626,0.718-3.343s1.208-1.075,2.188-1.075
		c0.957,0,1.682,0.375,2.174,1.125S217.938,24.22,217.938,25.666z M213.515,25.666c0,1.168,0.12,2.002,0.36,2.502
		s0.624,0.75,1.151,0.75s0.913-0.254,1.157-0.762s0.366-1.338,0.366-2.49c0-1.148-0.122-1.979-0.366-2.493s-0.63-0.771-1.157-0.771
		s-0.911,0.252-1.151,0.756S213.515,24.498,213.515,25.666z"/>
	<path fill="#FFFFFF" d="M221.349,26.24h-2.332v-1.043h2.332v-2.391h1.055v2.391h2.338v1.043h-2.338v2.379h-1.055V26.24z"/>
</g>
<g>
	<path fill="#FFFFFF" d="M45.921,29.949h-1.377v-5.531c0-0.66,0.016-1.184,0.047-1.57c-0.09,0.094-0.2,0.197-0.331,0.311
		s-0.569,0.473-1.315,1.078l-0.691-0.873l2.52-1.98h1.148V29.949z"/>
	<path fill="#FFFFFF" d="M54.535,25.666c0,1.488-0.239,2.594-0.718,3.316s-1.21,1.084-2.194,1.084c-0.953,0-1.676-0.373-2.168-1.119
		s-0.738-1.84-0.738-3.281c0-1.512,0.239-2.626,0.718-3.343s1.208-1.075,2.188-1.075c0.957,0,1.682,0.375,2.174,1.125
		S54.535,24.22,54.535,25.666z M50.111,25.666c0,1.168,0.12,2.002,0.36,2.502s0.624,0.75,1.151,0.75s0.913-0.254,1.157-0.762
		s0.366-1.338,0.366-2.49c0-1.148-0.122-1.979-0.366-2.493s-0.63-0.771-1.157-0.771s-0.911,0.252-1.151,0.756
		S50.111,24.498,50.111,25.666z"/>
	<path fill="#FFFFFF" d="M61.384,25.666c0,1.488-0.239,2.594-0.718,3.316s-1.21,1.084-2.194,1.084c-0.953,0-1.676-0.373-2.168-1.119
		s-0.738-1.84-0.738-3.281c0-1.512,0.239-2.626,0.718-3.343s1.208-1.075,2.188-1.075c0.957,0,1.682,0.375,2.174,1.125
		S61.384,24.22,61.384,25.666z M56.96,25.666c0,1.168,0.12,2.002,0.36,2.502s0.624,0.75,1.151,0.75s0.913-0.254,1.157-0.762
		s0.366-1.338,0.366-2.49c0-1.148-0.122-1.979-0.366-2.493s-0.63-0.771-1.157-0.771s-0.911,0.252-1.151,0.756
		S56.96,24.498,56.96,25.666z"/>
</g>
<g>
	<path fill="#FFFFFF" d="M99.745,29.949h-5.807v-1.043l2.209-2.221c0.652-0.668,1.085-1.142,1.298-1.421s0.368-0.542,0.466-0.788
		s0.146-0.51,0.146-0.791c0-0.387-0.116-0.691-0.349-0.914s-0.554-0.334-0.964-0.334c-0.328,0-0.646,0.061-0.952,0.182
		s-0.661,0.34-1.063,0.656l-0.744-0.908c0.477-0.402,0.939-0.688,1.389-0.855s0.928-0.252,1.436-0.252
		c0.797,0,1.436,0.208,1.916,0.624s0.721,0.976,0.721,1.679c0,0.387-0.069,0.754-0.208,1.102s-0.352,0.706-0.639,1.075
		s-0.765,0.868-1.433,1.497l-1.488,1.441v0.059h4.066V29.949z"/>
	<path fill="#FFFFFF" d="M106.594,25.666c0,1.488-0.239,2.594-0.718,3.316s-1.21,1.084-2.194,1.084
		c-0.953,0-1.676-0.373-2.168-1.119s-0.738-1.84-0.738-3.281c0-1.512,0.239-2.626,0.718-3.343s1.208-1.075,2.188-1.075
		c0.957,0,1.682,0.375,2.174,1.125S106.594,24.22,106.594,25.666z M102.17,25.666c0,1.168,0.12,2.002,0.36,2.502
		s0.624,0.75,1.151,0.75s0.913-0.254,1.157-0.762s0.366-1.338,0.366-2.49c0-1.148-0.122-1.979-0.366-2.493s-0.63-0.771-1.157-0.771
		s-0.911,0.252-1.151,0.756S102.17,24.498,102.17,25.666z"/>
	<path fill="#FFFFFF" d="M113.444,25.666c0,1.488-0.239,2.594-0.718,3.316s-1.21,1.084-2.194,1.084
		c-0.953,0-1.676-0.373-2.168-1.119s-0.738-1.84-0.738-3.281c0-1.512,0.239-2.626,0.718-3.343s1.208-1.075,2.188-1.075
		c0.957,0,1.682,0.375,2.174,1.125S113.444,24.22,113.444,25.666z M109.02,25.666c0,1.168,0.12,2.002,0.36,2.502
		s0.624,0.75,1.151,0.75s0.913-0.254,1.157-0.762s0.366-1.338,0.366-2.49c0-1.148-0.122-1.979-0.366-2.493s-0.63-0.771-1.157-0.771
		s-0.911,0.252-1.151,0.756S109.02,24.498,109.02,25.666z"/>
</g>
<g>
	<path fill="#FFFFFF" d="M151.482,23.351c0,0.543-0.158,0.995-0.475,1.356s-0.762,0.604-1.336,0.729v0.047
		c0.688,0.086,1.203,0.3,1.547,0.642s0.516,0.796,0.516,1.362c0,0.824-0.291,1.46-0.873,1.907s-1.41,0.671-2.484,0.671
		c-0.949,0-1.75-0.154-2.402-0.463v-1.225c0.363,0.18,0.748,0.318,1.154,0.416s0.797,0.146,1.172,0.146
		c0.664,0,1.16-0.123,1.488-0.369s0.492-0.627,0.492-1.143c0-0.457-0.182-0.793-0.545-1.008s-0.934-0.322-1.711-0.322h-0.744V24.98
		h0.756c1.367,0,2.051-0.473,2.051-1.418c0-0.367-0.119-0.65-0.357-0.85s-0.59-0.299-1.055-0.299c-0.324,0-0.637,0.046-0.938,0.138
		s-0.656,0.271-1.066,0.536l-0.674-0.961c0.785-0.578,1.697-0.867,2.736-0.867c0.863,0,1.537,0.186,2.021,0.557
		S151.482,22.699,151.482,23.351z"/>
	<path fill="#FFFFFF" d="M158.654,25.666c0,1.488-0.239,2.594-0.718,3.316s-1.21,1.084-2.194,1.084
		c-0.953,0-1.676-0.373-2.168-1.119s-0.738-1.84-0.738-3.281c0-1.512,0.239-2.626,0.718-3.343s1.208-1.075,2.188-1.075
		c0.957,0,1.682,0.375,2.174,1.125S158.654,24.22,158.654,25.666z M154.23,25.666c0,1.168,0.12,2.002,0.36,2.502
		s0.624,0.75,1.151,0.75s0.913-0.254,1.157-0.762s0.366-1.338,0.366-2.49c0-1.148-0.122-1.979-0.366-2.493s-0.63-0.771-1.157-0.771
		s-0.911,0.252-1.151,0.756S154.23,24.498,154.23,25.666z"/>
	<path fill="#FFFFFF" d="M165.504,25.666c0,1.488-0.239,2.594-0.718,3.316s-1.21,1.084-2.194,1.084
		c-0.953,0-1.676-0.373-2.168-1.119s-0.738-1.84-0.738-3.281c0-1.512,0.239-2.626,0.718-3.343s1.208-1.075,2.188-1.075
		c0.957,0,1.682,0.375,2.174,1.125S165.504,24.22,165.504,25.666z M161.08,25.666c0,1.168,0.12,2.002,0.36,2.502
		s0.624,0.75,1.151,0.75s0.913-0.254,1.157-0.762s0.366-1.338,0.366-2.49c0-1.148-0.122-1.979-0.366-2.493s-0.63-0.771-1.157-0.771
		s-0.911,0.252-1.151,0.756S161.08,24.498,161.08,25.666z"/>
</g>
</svg>
