<?xml version="1.0" encoding="utf-8"?>
<!-- Generator: Adobe Illustrator 15.0.2, SVG Export Plug-In . SVG Version: 6.00 Build 0)  -->
<!DOCTYPE svg PUBLIC "-//W3C//DTD SVG 1.1//EN" "http://www.w3.org/Graphics/SVG/1.1/DTD/svg11.dtd">
<svg version="1.1" id="Layer_1" xmlns="http://www.w3.org/2000/svg" xmlns:xlink="http://www.w3.org/1999/xlink" x="0px" y="0px"
	 width="260px" height="33.637px" viewBox="0 0 260 33.637" enable-background="new 0 0 260 33.637" xml:space="preserve">
<rect fill="#3B8FE2" width="52" height="13.5"/>
<rect x="208" fill="#FFF5B9" width="52" height="13.5"/>
<rect x="156" fill="#FDD25D" width="52" height="13.5"/>
<rect x="104" fill="#FDB22F" width="52" height="13.5"/>
<rect x="52" fill="#27E2AC" width="52" height="13.5"/>
<g>
	<path fill="#FFFFFF" d="M200.492,23.351c0,0.543-0.158,0.995-0.475,1.356s-0.762,0.604-1.336,0.729v0.047
		c0.688,0.086,1.203,0.3,1.547,0.642s0.516,0.796,0.516,1.362c0,0.824-0.291,1.46-0.873,1.907s-1.41,0.671-2.484,0.671
		c-0.949,0-1.75-0.154-2.402-0.463v-1.225c0.363,0.18,0.748,0.318,1.154,0.416s0.797,0.146,1.172,0.146
		c0.664,0,1.16-0.123,1.488-0.369s0.492-0.627,0.492-1.143c0-0.457-0.182-0.793-0.545-1.008s-0.934-0.322-1.711-0.322h-0.744V24.98
		h0.756c1.367,0,2.051-0.473,2.051-1.418c0-0.367-0.119-0.65-0.357-0.85s-0.59-0.299-1.055-0.299c-0.324,0-0.637,0.046-0.938,0.138
		s-0.656,0.271-1.066,0.536l-0.674-0.961c0.785-0.578,1.697-0.867,2.736-0.867c0.863,0,1.537,0.186,2.021,0.557
		S200.492,22.699,200.492,23.351z"/>
	<path fill="#FFFFFF" d="M207.969,28.08h-1.154v1.869h-1.342V28.08h-3.914v-1.061l3.914-5.66h1.342v5.578h1.154V28.08z
		 M205.473,26.937v-2.15c0-0.766,0.02-1.393,0.059-1.881h-0.047c-0.109,0.258-0.281,0.57-0.516,0.938l-2.127,3.094H205.473z"/>
	<path fill="#FFFFFF" d="M214.514,25.666c0,1.488-0.239,2.594-0.718,3.316s-1.21,1.084-2.194,1.084
		c-0.953,0-1.676-0.373-2.168-1.119s-0.738-1.84-0.738-3.281c0-1.512,0.239-2.626,0.718-3.343s1.208-1.075,2.188-1.075
		c0.957,0,1.682,0.375,2.174,1.125S214.514,24.22,214.514,25.666z M210.09,25.666c0,1.168,0.12,2.002,0.36,2.502
		s0.624,0.75,1.151,0.75s0.913-0.254,1.157-0.762s0.366-1.338,0.366-2.49c0-1.148-0.122-1.979-0.366-2.493s-0.63-0.771-1.157-0.771
		s-0.911,0.252-1.151,0.756S210.09,24.498,210.09,25.666z"/>
	<path fill="#FFFFFF" d="M221.363,25.666c0,1.488-0.239,2.594-0.718,3.316s-1.21,1.084-2.194,1.084
		c-0.953,0-1.676-0.373-2.168-1.119s-0.738-1.84-0.738-3.281c0-1.512,0.239-2.626,0.718-3.343s1.208-1.075,2.188-1.075
		c0.957,0,1.682,0.375,2.174,1.125S221.363,24.22,221.363,25.666z M216.939,25.666c0,1.168,0.12,2.002,0.36,2.502
		s0.624,0.75,1.151,0.75s0.913-0.254,1.157-0.762s0.366-1.338,0.366-2.49c0-1.148-0.122-1.979-0.366-2.493s-0.63-0.771-1.157-0.771
		s-0.911,0.252-1.151,0.756S216.939,24.498,216.939,25.666z"/>
	<path fill="#FFFFFF" d="M224.773,26.24h-2.332v-1.043h2.332v-2.391h1.055v2.391h2.338v1.043h-2.338v2.379h-1.055V26.24z"/>
</g>
<g>
	<path fill="#FFFFFF" d="M44.951,21.271c0.812,0,1.455,0.187,1.928,0.56s0.709,0.872,0.709,1.497c0,0.879-0.527,1.578-1.582,2.098
		c0.672,0.336,1.149,0.689,1.433,1.061s0.425,0.785,0.425,1.242c0,0.707-0.26,1.273-0.779,1.699s-1.223,0.639-2.109,0.639
		c-0.93,0-1.65-0.199-2.162-0.598s-0.768-0.963-0.768-1.693c0-0.477,0.134-0.905,0.401-1.286s0.706-0.72,1.315-1.017
		c-0.523-0.312-0.896-0.643-1.119-0.99s-0.334-0.738-0.334-1.172c0-0.621,0.244-1.116,0.732-1.485S44.166,21.271,44.951,21.271z
		 M43.363,27.728c0,0.406,0.143,0.722,0.428,0.946s0.672,0.337,1.16,0.337c0.504,0,0.896-0.116,1.175-0.349s0.419-0.548,0.419-0.946
		c0-0.316-0.129-0.605-0.387-0.867s-0.648-0.504-1.172-0.727l-0.17-0.076c-0.516,0.227-0.887,0.476-1.113,0.747
		S43.363,27.376,43.363,27.728z M44.939,22.332c-0.391,0-0.705,0.097-0.943,0.29s-0.357,0.456-0.357,0.788
		c0,0.203,0.043,0.385,0.129,0.545s0.211,0.306,0.375,0.437s0.441,0.288,0.832,0.472c0.469-0.207,0.8-0.425,0.993-0.653
		s0.29-0.495,0.29-0.8c0-0.332-0.12-0.595-0.36-0.788S45.337,22.332,44.939,22.332z"/>
	<path fill="#FFFFFF" d="M51.812,24.599c0.863,0,1.547,0.229,2.051,0.686s0.756,1.08,0.756,1.869c0,0.914-0.286,1.628-0.858,2.142
		s-1.386,0.771-2.44,0.771c-0.957,0-1.709-0.154-2.256-0.463v-1.248c0.316,0.18,0.68,0.318,1.09,0.416s0.791,0.146,1.143,0.146
		c0.621,0,1.094-0.139,1.418-0.416s0.486-0.684,0.486-1.219c0-1.023-0.652-1.535-1.957-1.535c-0.184,0-0.41,0.019-0.68,0.056
		s-0.506,0.079-0.709,0.126l-0.615-0.363l0.328-4.184h4.453v1.225h-3.24l-0.193,2.121c0.137-0.023,0.304-0.051,0.501-0.082
		S51.527,24.599,51.812,24.599z"/>
	<path fill="#FFFFFF" d="M61.562,25.666c0,1.488-0.239,2.594-0.718,3.316s-1.21,1.084-2.194,1.084c-0.953,0-1.676-0.373-2.168-1.119
		s-0.738-1.84-0.738-3.281c0-1.512,0.239-2.626,0.718-3.343s1.208-1.075,2.188-1.075c0.957,0,1.682,0.375,2.174,1.125
		S61.562,24.22,61.562,25.666z M57.138,25.666c0,1.168,0.12,2.002,0.36,2.502s0.624,0.75,1.151,0.75s0.913-0.254,1.157-0.762
		s0.366-1.338,0.366-2.49c0-1.148-0.122-1.979-0.366-2.493s-0.63-0.771-1.157-0.771s-0.911,0.252-1.151,0.756
		S57.138,24.498,57.138,25.666z"/>
</g>
<g>
	<path fill="#FFFFFF" d="M94.556,29.949h-1.377v-5.531c0-0.66,0.016-1.184,0.047-1.57c-0.09,0.094-0.2,0.197-0.331,0.311
		s-0.569,0.473-1.315,1.078l-0.691-0.873l2.52-1.98h1.148V29.949z"/>
	<path fill="#FFFFFF" d="M98.335,29.949l3.387-7.342h-4.453v-1.213h5.924v0.961l-3.369,7.594H98.335z"/>
	<path fill="#FFFFFF" d="M110.019,25.666c0,1.488-0.239,2.594-0.718,3.316s-1.21,1.084-2.194,1.084
		c-0.953,0-1.676-0.373-2.168-1.119s-0.738-1.84-0.738-3.281c0-1.512,0.239-2.626,0.718-3.343s1.208-1.075,2.188-1.075
		c0.957,0,1.682,0.375,2.174,1.125S110.019,24.22,110.019,25.666z M105.595,25.666c0,1.168,0.12,2.002,0.36,2.502
		s0.624,0.75,1.151,0.75s0.913-0.254,1.157-0.762s0.366-1.338,0.366-2.49c0-1.148-0.122-1.979-0.366-2.493s-0.63-0.771-1.157-0.771
		s-0.911,0.252-1.151,0.756S105.595,24.498,105.595,25.666z"/>
	<path fill="#FFFFFF" d="M116.869,25.666c0,1.488-0.239,2.594-0.718,3.316s-1.21,1.084-2.194,1.084
		c-0.953,0-1.676-0.373-2.168-1.119s-0.738-1.84-0.738-3.281c0-1.512,0.239-2.626,0.718-3.343s1.208-1.075,2.188-1.075
		c0.957,0,1.682,0.375,2.174,1.125S116.869,24.22,116.869,25.666z M112.445,25.666c0,1.168,0.12,2.002,0.36,2.502
		s0.624,0.75,1.151,0.75s0.913-0.254,1.157-0.762s0.366-1.338,0.366-2.49c0-1.148-0.122-1.979-0.366-2.493s-0.63-0.771-1.157-0.771
		s-0.911,0.252-1.151,0.756S112.445,24.498,112.445,25.666z"/>
</g>
<g>
	<path fill="#FFFFFF" d="M148.38,29.949h-5.807v-1.043l2.209-2.221c0.652-0.668,1.085-1.142,1.298-1.421s0.368-0.542,0.466-0.788
		s0.146-0.51,0.146-0.791c0-0.387-0.116-0.691-0.349-0.914s-0.554-0.334-0.964-0.334c-0.328,0-0.646,0.061-0.952,0.182
		s-0.661,0.34-1.063,0.656l-0.744-0.908c0.477-0.402,0.939-0.688,1.389-0.855s0.928-0.252,1.436-0.252
		c0.797,0,1.436,0.208,1.916,0.624s0.721,0.976,0.721,1.679c0,0.387-0.069,0.754-0.208,1.102s-0.352,0.706-0.639,1.075
		s-0.765,0.868-1.433,1.497l-1.488,1.441v0.059h4.066V29.949z"/>
	<path fill="#FFFFFF" d="M152.329,24.599c0.863,0,1.547,0.229,2.051,0.686s0.756,1.08,0.756,1.869c0,0.914-0.286,1.628-0.858,2.142
		s-1.386,0.771-2.44,0.771c-0.957,0-1.709-0.154-2.256-0.463v-1.248c0.316,0.18,0.68,0.318,1.09,0.416s0.791,0.146,1.143,0.146
		c0.621,0,1.094-0.139,1.418-0.416s0.486-0.684,0.486-1.219c0-1.023-0.652-1.535-1.957-1.535c-0.184,0-0.41,0.019-0.68,0.056
		s-0.506,0.079-0.709,0.126l-0.615-0.363l0.328-4.184h4.453v1.225h-3.24l-0.193,2.121c0.137-0.023,0.304-0.051,0.501-0.082
		S152.044,24.599,152.329,24.599z"/>
	<path fill="#FFFFFF" d="M159.179,24.599c0.863,0,1.547,0.229,2.051,0.686s0.756,1.08,0.756,1.869c0,0.914-0.286,1.628-0.858,2.142
		s-1.386,0.771-2.44,0.771c-0.957,0-1.709-0.154-2.256-0.463v-1.248c0.316,0.18,0.68,0.318,1.09,0.416s0.791,0.146,1.143,0.146
		c0.621,0,1.094-0.139,1.418-0.416s0.486-0.684,0.486-1.219c0-1.023-0.652-1.535-1.957-1.535c-0.184,0-0.41,0.019-0.68,0.056
		s-0.506,0.079-0.709,0.126l-0.615-0.363l0.328-4.184h4.453v1.225h-3.24l-0.193,2.121c0.137-0.023,0.304-0.051,0.501-0.082
		S158.894,24.599,159.179,24.599z"/>
	<path fill="#FFFFFF" d="M168.929,25.666c0,1.488-0.239,2.594-0.718,3.316s-1.21,1.084-2.194,1.084
		c-0.953,0-1.676-0.373-2.168-1.119s-0.738-1.84-0.738-3.281c0-1.512,0.239-2.626,0.718-3.343s1.208-1.075,2.188-1.075
		c0.957,0,1.682,0.375,2.174,1.125S168.929,24.22,168.929,25.666z M164.505,25.666c0,1.168,0.12,2.002,0.36,2.502
		s0.624,0.75,1.151,0.75s0.913-0.254,1.157-0.762s0.366-1.338,0.366-2.49c0-1.148-0.122-1.979-0.366-2.493s-0.63-0.771-1.157-0.771
		s-0.911,0.252-1.151,0.756S164.505,24.498,164.505,25.666z"/>
</g>
</svg>
