<?xml version="1.0" encoding="UTF-8" standalone="no"?>
<!DOCTYPE svg PUBLIC "-//W3C//DTD SVG 1.1//EN" "http://www.w3.org/Graphics/SVG/1.1/DTD/svg11.dtd">
<svg width="100%" height="100%" viewBox="0 0 200 75" version="1.1" xmlns="http://www.w3.org/2000/svg" xmlns:xlink="http://www.w3.org/1999/xlink" xml:space="preserve" style="fill-rule:evenodd;clip-rule:evenodd;stroke-linecap:round;stroke-linejoin:round;stroke-miterlimit:1.5;">
    <rect id="Artboard1" x="0" y="0" width="200" height="75" style="fill:none;"/>
    <clipPath id="_clip1">
        <rect id="Artboard11" x="0" y="0" width="200" height="75"/>
    </clipPath>
    <g clip-path="url(#_clip1)">
        <g transform="matrix(1,0,0,1,-8.4227,-1.82422)">
            <rect x="10.121" y="18.434" width="23.076" height="23.076" style="fill:rgb(254,196,40);"/>
        </g>
        <g transform="matrix(1,0,0,1,14.6528,-1.82422)">
            <rect x="10.121" y="18.434" width="23.076" height="23.076" style="fill:rgb(248,149,65);"/>
        </g>
        <g transform="matrix(1,0,0,1,37.7283,-1.82422)">
            <rect x="10.121" y="18.434" width="23.076" height="23.076" style="fill:rgb(230,107,92);"/>
        </g>
        <g transform="matrix(1,0,0,1,60.8039,-1.82422)">
            <rect x="10.121" y="18.434" width="23.076" height="23.076" style="fill:rgb(203,71,120);"/>
        </g>
        <g transform="matrix(1,0,0,1,83.8794,-1.82422)">
            <rect x="10.121" y="18.434" width="23.076" height="23.076" style="fill:rgb(169,32,150);"/>
        </g>
        <g transform="matrix(1,0,0,1,106.955,-1.82422)">
            <rect x="10.121" y="18.434" width="23.076" height="23.076" style="fill:rgb(126,0,168);"/>
        </g>
        <g transform="matrix(1,0,0,1,130.03,-1.82422)">
            <rect x="10.121" y="18.434" width="23.076" height="23.076" style="fill:rgb(76,0,161);"/>
        </g>
        <g transform="matrix(1,0,0,1,153.106,-1.82422)">
            <rect x="10.121" y="18.434" width="23.076" height="23.076" style="fill:rgb(13,2,135);"/>
        </g>
        <g transform="matrix(1,0,0,1,-6,-3)">
            <rect x="7.076" y="19.61" width="185.226" height="23.076" style="fill:none;stroke:white;stroke-width:1.25px;"/>
        </g>
        <g transform="matrix(1,0,0,1,-22.5586,-6.40885)">
            <text x="29.712px" y="56.951px" style="font-family:'OpenSans', 'Open Sans', sans-serif;font-size:10.417px;fill:white;">150</text>
        </g>
        <g transform="matrix(1,0,0,1,0.881511,-6.52584)">
            <text x="29.712px" y="56.951px" style="font-family:'OpenSans', 'Open Sans', sans-serif;font-size:10.417px;fill:white;">175</text>
        </g>
        <g transform="matrix(1,0,0,1,23.7643,-6.52584)">
            <text x="29.712px" y="56.951px" style="font-family:'OpenSans', 'Open Sans', sans-serif;font-size:10.417px;fill:white;">200</text>
        </g>
        <g transform="matrix(1,0,0,1,47.0204,-6.40885)">
            <text x="29.712px" y="56.951px" style="font-family:'OpenSans', 'Open Sans', sans-serif;font-size:10.417px;fill:white;">225</text>
        </g>
        <g transform="matrix(1,0,0,1,70.3385,-6.52584)">
            <text x="29.712px" y="56.951px" style="font-family:'OpenSans', 'Open Sans', sans-serif;font-size:10.417px;fill:white;">250</text>
        </g>
        <g transform="matrix(1,0,0,1,106.79,10.0469)">
            <text x="29.712px" y="56.951px" style="font-family:'OpenSans', 'Open Sans', sans-serif;font-size:12.5px;fill:white;">kWh/m</text>
            <text x="71.734px" y="52.784px" style="font-family:'OpenSans', 'Open Sans', sans-serif;font-size:8.333px;fill:white;">2</text>
        </g>
        <g transform="matrix(1,0,0,1,93.4961,-6.47243)">
            <text x="29.712px" y="56.951px" style="font-family:'OpenSans', 'Open Sans', sans-serif;font-size:10.417px;fill:white;">275</text>
        </g>
        <g transform="matrix(1,0,0,1,117.302,-6.40885)">
            <text x="29.712px" y="56.951px" style="font-family:'OpenSans', 'Open Sans', sans-serif;font-size:10.417px;fill:white;">300</text>
        </g>
        <g transform="matrix(1,0,0,1,149.246,-6.40885)">
            <text x="29.712px" y="56.951px" style="font-family:'OpenSans', 'Open Sans', sans-serif;font-size:10.417px;fill:white;">+</text>
        </g>
    </g>
</svg>
