<svg xmlns="http://www.w3.org/2000/svg" viewBox="0 0 145 112.706"><defs><style>.a{fill:#5a9ce5;}.b{fill:#fff;}.c{fill:#246ca8;}.d{fill:#cdd5e8;}.e{fill:#7cad51;}</style></defs><path class="a" d="M3.272,65.108c0-1.347-.036-2.483-.085-3.428H6.268l.146,1.266H6.5a3.486,3.486,0,0,1,2.977-1.489,2.765,2.765,0,0,1,2.715,1.613h.04a3.991,3.991,0,0,1,1.389-1.2,3.808,3.808,0,0,1,1.774-.409c2.157,0,3.407,1.574,3.407,4.366v5.892h-3.57V66.375c0-1.247-.373-1.968-1.189-1.968a1.146,1.146,0,0,0-1.118.867,2.214,2.214,0,0,0-.106.735v5.706H9.251V66.269c0-1.118-.345-1.862-1.183-1.862a1.243,1.243,0,0,0-1.124.82,2.461,2.461,0,0,0-.1.759v5.731H3.272Z" transform="translate(-3.187 40.77)"/><path class="a" d="M19.516,65.494a1.48,1.48,0,0,0-1.425-1.635,1.676,1.676,0,0,0-1.574,1.635Zm-2.953,2.483c.118.8,1.28,1.254,2.59,1.254a8.686,8.686,0,0,0,2.729-.4l.468,2.455a10.325,10.325,0,0,1-3.749.626c-3.529,0-5.53-1.933-5.53-5.113a5.119,5.119,0,0,1,5.2-5.344c3.244,0,4.63,2.384,4.63,5.138a6.573,6.573,0,0,1-.139,1.382Z" transform="translate(4.069 40.77)"/><path class="a" d="M23.979,59.936l0,2.858h2.079v2.7H23.982v2.875c0,1.183.26,1.666,1.162,1.666a2.716,2.716,0,0,0,.877-.085v2.8a6.916,6.916,0,0,1-2.188.281,3.546,3.546,0,0,1-2.509-.914,4.235,4.235,0,0,1-.938-3.123v-3.5H19.143v-2.7h1.243V60.916Z" transform="translate(8.524 39.654)"/><path class="a" d="M24.177,65.062c0-1.585-.017-2.544-.081-3.383h3.142L27.38,63.5h.081a2.867,2.867,0,0,1,2.672-2.043,2.635,2.635,0,0,1,.735.064v3.44a4.47,4.47,0,0,0-.938-.1,1.844,1.844,0,0,0-2.022,1.266,5.774,5.774,0,0,0-.04.633v4.954H24.177Z" transform="translate(12.159 40.769)"/><path class="a" d="M33.91,69.353c1,0,1.531-1.044,1.531-2.651,0-1.392-.451-2.648-1.531-2.648-1.222,0-1.632,1.321-1.632,2.648,0,1.51.491,2.651,1.613,2.651Zm-.1,2.584c-3,0-5.33-1.9-5.33-5.152,0-3.211,2.1-5.33,5.53-5.33A4.924,4.924,0,0,1,39.235,66.6a5.067,5.067,0,0,1-5.4,5.341Z" transform="translate(15.379 40.769)"/><path class="a" d="M37.827,61.682l1.937,5.524a26.534,26.534,0,0,1,.8,2.551h.061c.227-.82.512-1.635.836-2.551l1.919-5.524h1.873l-3.874,9.864H39.658l-3.752-9.864h1.921Z" transform="translate(20.826 40.936)"/><path class="a" d="M47.754,66.608c-1.958-.043-4.179.305-4.179,2.225a1.567,1.567,0,0,0,1.67,1.71,2.5,2.5,0,0,0,2.428-1.649,1.872,1.872,0,0,0,.081-.576v-1.71Zm1.753,2.675a16.613,16.613,0,0,0,.142,2.363H48.037l-.16-1.247h-.061A3.652,3.652,0,0,1,44.8,71.867a2.809,2.809,0,0,1-3.017-2.835c0-2.388,2.121-3.692,5.934-3.671v-.2a2.02,2.02,0,0,0-2.245-2.278,4.757,4.757,0,0,0-2.587.725l-.409-1.2a6.5,6.5,0,0,1,3.268-.853c3.034,0,3.77,2.056,3.77,4.037v3.7Z" transform="translate(25.137 40.839)"/><path class="a" d="M47.929,64.445c0-1.04-.021-1.855-.081-2.665h1.588l.108,1.6h.036a3.657,3.657,0,0,1,3.265-1.833c1.368,0,3.489.81,3.489,4.2v5.892H54.539V65.951c0-1.592-.593-2.939-2.282-2.939a2.6,2.6,0,0,0-2.408,1.848,2.491,2.491,0,0,0-.125.824v5.961H47.929v-7.2Z" transform="translate(29.591 40.838)"/><path class="a" d="M61.765,71.275a6.9,6.9,0,0,1-2.835.569,4.687,4.687,0,0,1-4.917-5.035,5.031,5.031,0,0,1,5.3-5.259,5.637,5.637,0,0,1,2.49.529L61.4,63.446a4.393,4.393,0,0,0-2.079-.47,3.427,3.427,0,0,0-3.489,3.735A3.385,3.385,0,0,0,59.258,70.4a5.183,5.183,0,0,0,2.2-.461Z" transform="translate(34.116 40.838)"/><path class="a" d="M64.028,70.525c1.713,0,3-1.606,2.995-3.861,0-1.67-.836-3.77-2.956-3.77-2.1,0-3.021,1.958-3.021,3.837,0,2.157,1.229,3.79,2.96,3.79h.024v0Zm-.081,1.344c-2.655,0-4.734-1.958-4.734-5.084,0-3.3,2.185-5.236,4.893-5.236,2.838,0,4.754,2.056,4.754,5.056,0,3.671-2.551,5.262-4.893,5.262h-.021Z" transform="translate(37.932 40.837)"/><path class="a" d="M74.374,68.838c0,1.037.017,1.933.081,2.708H72.863l-.1-1.609h-.04a3.7,3.7,0,0,1-3.265,1.833c-1.552,0-3.407-.877-3.407-4.324V61.682h1.795v5.439c0,1.876.593,3.166,2.2,3.166a2.584,2.584,0,0,0,2.367-1.656,2.431,2.431,0,0,0,.163-.917V61.682h1.8Z" transform="translate(42.949 40.936)"/><path class="a" d="M73.779,61.682l1.937,5.524c.328.914.59,1.73.8,2.54h.061c.224-.81.511-1.626.836-2.54l1.919-5.524H81.2l-3.877,9.864h-1.71l-3.752-9.864h1.918Z" transform="translate(47.215 40.936)"/><path class="a" d="M84.672,65.754c.021-1.148-.468-2.92-2.469-2.92-1.84,0-2.611,1.673-2.753,2.92ZM79.425,67.04a3.142,3.142,0,0,0,3.369,3.4,6.415,6.415,0,0,0,2.736-.508l.326,1.28a8.078,8.078,0,0,1-3.3.633,4.6,4.6,0,0,1-4.857-4.978c0-2.977,1.774-5.32,4.647-5.32,3.227,0,4.064,2.835,4.064,4.657a4.953,4.953,0,0,1-.057.836H79.425Z" transform="translate(51.497 40.836)"/><path class="a" d="M84.033,64.85c0-1.162-.017-2.164-.078-3.071h1.567l.085,1.923h.064a2.961,2.961,0,0,1,2.75-2.154c.182,0,.328.021.487.035v1.7a4.381,4.381,0,0,0-.61-.043A2.527,2.527,0,0,0,85.89,65.53a5.628,5.628,0,0,0-.061.832v5.283h-1.8v-6.8Z" transform="translate(56.091 40.838)"/><path class="b" d="M113.9,51.029A48.533,48.533,0,1,1,65.365,2.5,48.531,48.531,0,0,1,113.9,51.029Z" transform="translate(6.83 -2.5)"/><path class="c" d="M61.282,68.562a44.861,44.861,0,0,0,38.75-22.232c-1.481-.8-15.2-6.395-38.1-6.395-21.908-.153-31.811,3.837-39.44,6.329A44.863,44.863,0,0,0,61.282,68.562Z" transform="translate(10.982 24.971)"/><path class="d" d="M44.978,33.081c.166.192,3.262-4.5,6.587-3.678,2.039.508,3.44-1.684,3.44-1.684s2.1-3.556,4.758-3.529c1.144.007,2.923,3.105,3.941,4.517.583.779.711,1.781,2.036-.043.973-1.337,3.4-1.706,3.4-1.706a4.774,4.774,0,0,1,3.77,1.585c1.219,1.335,2.6,1.639,6.123,2.48,3.9.945,8.883,4.168,11.661,6.119,4.2-1.052,8.9-2.062,14.18-2.988a44.909,44.909,0,0,0-84.3-.17c1.971.316,7.817,1.294,14.938,2.96a13.013,13.013,0,0,1,4.924-2.3C43.306,33.813,45.111,33.227,44.978,33.081Z" transform="translate(9.577 -0.915)"/><path class="e" d="M86.4,23.831c-.007-.007-.017-.031-.028-.036C68.631,26.51,47.345,36.532,47.345,36.532s11.5,6.325,17.336,11.839c0,0,17.745.078,21.336.139a45.02,45.02,0,0,0,.38-24.679Z" transform="translate(29.222 13.129)"/><path class="d" d="M44.279,18.369S47.8,19.741,48.728,21.9c.461,1.077-.021,2.245.331,4.565.541,3.61,2.133,3.657,4.957,5.131,3.8,1.994,3.3,4.132,3.3,4.132a40.575,40.575,0,0,0-9.167-4.8c-4.271-1.418-2.133-5.849-3.414-7.7-1.859-2.707-4.132-.468-4.037-1.486C40.864,20.127,44.279,18.369,44.279,18.369Z" transform="translate(24.345 9.147)"/><path class="d" d="M32.041,26.493s2.211-2.317,4.633-2.317,2.266-1.841,3.223-2.729c2.018-1.873,5.479-.316,5.479-.316s-.746-.149-3.437,1.994c-1.378,1.111-1.557,3.343-1.72,4.2-.135.728,1.29,2.747,1.29,2.747Z" transform="translate(17.99 10.729)"/><path class="d" d="M47.238,21.055a15.019,15.019,0,0,0,3.966.992c1.436,0,2.022-.085,2.587-.969,1.2-1.88,6.84,2.124,6.84,2.124s-4.864-1.493-6.455.661c-.817,1.108,1.307,2.353,1.656,3.145C57.153,29.981,55,30.645,55,30.645Z" transform="translate(29.143 10.766)"/><path class="e" d="M27.418,48.425l.01-5.394,5.152-.017.007,2.445,2.5,0L35.119,40l2.509-1.158,2.207-.007,2.4,1.137,0,3.431,1.463.01v-6.83l3.478.024.017,5.741,1.7.01v3.919H50.5s.024-4.812.031-5.174c2.154-.021,5.181,0,5.181,0v4.3l2.259.061.05-1.328,3.421-.054.054,4.246,18.121.024c-2.117-1.6-30.672-22.7-59.136-24.448a44.926,44.926,0,0,0,.409,24.518h6.528Z" transform="translate(8.4 13.211)"/></svg>