<svg xmlns="http://www.w3.org/2000/svg" viewBox="0 0 18 18.014"><defs><style>.a{fill:#fff;}</style></defs><g transform="translate(0.026 0.193)"><g transform="translate(-0.026 -0.193)"><path class="a" d="M17.952,14.53c-.144-.94-1.019-1.966-2.531-2.963-2.174-1.429-2.783-1.051-3.6-.317-.065.061-.133.122-.209.184l-.025.025a1.27,1.27,0,0,1-.688.385.362.362,0,0,1-.27-.112c-.637-.6-2.275-2.174-2.34-2.236l0,0S6.76,7.834,6.13,7.2a.3.3,0,0,1-.108-.241c.018-.22.3-.468.389-.536L6.44,6.4c.083-.076.166-.144.245-.212.86-.72,1.278-1.321-.194-3.6C5.3.721,4.554-.024,3.754-.168a2,2,0,0,0-1.57.49A4.215,4.215,0,0,0,0,3.162c-.238,1.955,1.393,4.752,5.328,9.111l.032.032c3.751,3.755,6.537,5.515,8.74,5.515.072,0,.144,0,.216-.007a4.535,4.535,0,0,0,3.279-1.976A1.6,1.6,0,0,0,17.952,14.53Z" transform="translate(0.026 0.193)"/></g></g></svg>