<?xml version="1.0" encoding="UTF-8" standalone="no"?>
<!DOCTYPE svg PUBLIC "-//W3C//DTD SVG 1.1//EN" "http://www.w3.org/Graphics/SVG/1.1/DTD/svg11.dtd">
<svg width="100%" height="100%" viewBox="0 0 115 101" version="1.1" xmlns="http://www.w3.org/2000/svg" xmlns:xlink="http://www.w3.org/1999/xlink" xml:space="preserve" style="fill-rule:evenodd;clip-rule:evenodd;stroke-linejoin:round;stroke-miterlimit:1.41421;">
    <g id="Artboard2" transform="matrix(1,0,0,1,7.17391,0)">
        <rect x="-7.174" y="0" width="114.542" height="101" style="fill:none;"/>
        <rect id="Artboard1" x="0" y="0" width="100" height="100.787" style="fill:none;"/>
        <g>
            <path d="M48.4,87.9C48.3,87.9 48.1,87.9 48,87.8C41.3,86 41.6,79.7 41.8,74.5C41.9,72.1 42,69.8 41.5,68.1C41,66.6 40,65.7 38.9,64.7C37.8,63.7 36.6,62.6 35.9,61C35,59.1 34.9,57.1 34.9,55.1C34.9,53.9 34.9,52.8 34.6,51.8C34.2,50.1 33.4,49.7 31.8,49C31.1,48.7 30.3,48.3 29.4,47.8C28.3,47.1 27.3,46.3 26.4,45.5C25.8,45 25.2,44.4 24.5,44C23.4,43.2 22.7,43 21.4,42.7C21.1,42.6 20.8,42.6 20.5,42.5C16.6,41.5 15.7,38.2 14.9,35.6C14,32.6 13.1,28.6 13.4,24.4C13.5,23.6 14.2,22.9 15,23C15.8,23.1 16.5,23.8 16.4,24.6C16.2,27.6 16.6,30.7 17.8,34.8C18.6,37.7 19.2,39 21.2,39.6C21.5,39.7 21.8,39.7 22,39.8C23.4,40.2 24.6,40.5 26.2,41.6C26.9,42.1 27.6,42.7 28.2,43.3C29.1,44.1 29.9,44.8 30.8,45.3C31.4,45.7 32.1,46 32.8,46.3C34.6,47.1 36.7,48 37.4,51.3C37.7,52.6 37.7,53.9 37.7,55.2C37.7,56.9 37.8,58.5 38.4,59.8C38.9,60.9 39.8,61.7 40.7,62.5C42,63.7 43.5,65 44.2,67.3C44.9,69.5 44.8,72.2 44.7,74.8C44.5,78.9 44.6,81.9 46.2,83.6C45.9,81.7 45.8,79.6 46.9,78.2C48,76.8 49.6,76.1 51.2,75.5C52.2,75.1 53.1,74.7 53.7,74.2C55.3,73 55.6,71.9 56,69.7L56.1,69.4C56.6,67.4 58.1,66.5 59.3,65.8C59.8,65.5 60.3,65.2 60.7,64.9C62.4,63.4 64.9,59.9 64.9,57.4C64.9,56.6 64.7,56 64.2,55.5C63.4,54.8 62.3,54.3 61.1,53.8C60.4,53.5 59.7,53.2 59,52.8C57.6,52 56.7,50.9 55.9,50C55.4,49.4 54.9,48.8 54.3,48.3C53.4,47.6 52.1,47.5 50.7,47.3C49.9,47.2 49.2,47.1 48.4,47C47.1,46.7 45.8,46.2 44.7,45.8C43.6,45.4 42.6,45 41.6,44.7C39.4,44.1 37.3,44.6 34.9,45.1C32,45.7 30.1,45.9 29.1,42C28.9,41.3 28.2,41 26.8,40.6C25,40.1 21.6,39.1 22.8,34.5C23.4,32 25.4,30 28,29.3C29.9,28.7 31.8,28.9 33.5,29.6C34.3,26.6 36.2,24.1 37.9,21.9C40.8,18.2 43,17.8 47.4,17.9L48.1,17.9C47.9,17.7 47.6,17.5 47.4,17.4C46.7,16.9 46,16.5 45.6,15.8C45,14.9 44.5,13.8 44.1,12.8C43.2,10.7 42.5,9.3 41.3,9.1C40.5,9 39.9,8.2 40,7.3C40.1,6.4 40.9,5.9 41.8,6C44.8,6.5 46,9.3 46.9,11.5C47.3,12.4 47.7,13.3 48.1,13.9C48.3,14.1 48.8,14.5 49.2,14.8C50.1,15.4 51.2,16.2 51.5,17.3C51.9,18.5 51.5,19.3 51.2,19.7C50.3,20.9 48.7,20.9 47.6,20.8L47.4,20.8C43.7,20.7 42.5,20.9 40.3,23.6C38.4,26 36.3,28.9 36.1,32C36.1,32.6 35.7,33.1 35.1,33.3C34.6,33.5 33.9,33.4 33.5,33C32.3,31.9 30.5,31.5 28.8,32C27.2,32.5 26.1,33.6 25.7,35.1C25.3,36.9 25.6,37 27.6,37.5C29.2,38 31.4,38.6 32.1,41.1C32.3,41.9 32.4,42.2 32.5,42.3C32.8,42.3 33.7,42.1 34.3,42C36.9,41.5 39.4,40.9 42.3,41.7C43.5,42 44.6,42.4 45.7,42.9C46.8,43.3 47.9,43.8 49,44C49.6,44.1 50.2,44.2 50.9,44.3C52.6,44.5 54.5,44.7 56.1,46C56.9,46.7 57.6,47.4 58.1,48.1C58.8,48.9 59.4,49.7 60.3,50.2C60.9,50.5 61.5,50.8 62.1,51.1C63.5,51.7 64.9,52.3 66,53.4C67.1,54.5 67.7,55.9 67.7,57.6C67.6,61.4 64.4,65.6 62.4,67.3C61.8,67.8 61.1,68.2 60.6,68.6C59.6,69.2 59,69.6 58.8,70.3L58.7,70.6C58.2,73 57.7,74.9 55.2,76.8C54.3,77.5 53.1,78 52,78.5C50.8,79 49.5,79.6 48.9,80.3C48.3,81 48.8,83.4 49,84.8C49.1,85.4 49.2,86 49.3,86.5C49.4,87 49.2,87.5 48.8,87.8C49.1,87.7 48.7,87.9 48.4,87.9Z" style="fill:white;fill-rule:nonzero;"/>
            <path d="M50,95C25.2,95 5,74.8 5,50C5,25.2 25.2,5 50,5C74.8,5 95,25.2 95,50C95,74.8 74.8,95 50,95ZM50,8.1C26.9,8.1 8.1,26.9 8.1,50C8.1,73.1 26.9,91.9 50,91.9C73.1,91.9 91.9,73.1 91.9,50C91.9,26.9 73.1,8.1 50,8.1Z" style="fill:white;fill-rule:nonzero;"/>
            <path d="M84.9,54.7C83.7,54.7 82.5,54.3 81.5,53.6C77.9,51.1 76.9,45.3 76.7,44.2C76.4,42.1 76.5,39.8 76.6,37.5C76.7,33.6 76.9,29.6 75,26.6C74.6,25.9 73.8,25.3 73.1,24.6C71.9,23.6 70.6,22.5 70.8,20.9C70.9,20 71.6,19.3 72.4,18.7C71.5,18.2 70.5,17.9 69.5,17.6C66.7,16.8 63.3,15.8 63.5,10.4C63.5,9.6 64.2,8.9 65.1,8.9C65.9,8.9 66.6,9.6 66.6,10.5C66.5,13.5 67.7,13.8 70.4,14.6C72.3,15.2 74.6,15.8 76.3,17.9C76.6,18.3 76.7,18.8 76.6,19.2C76.5,19.6 76.2,20.1 75.7,20.3C74.7,20.7 74.2,21.1 73.9,21.3C74.2,21.6 74.6,22 75,22.3C75.9,23 76.9,23.9 77.6,25C79.9,28.8 79.8,33.3 79.6,37.7C79.5,39.9 79.4,42 79.7,43.8C80.1,46.5 81.3,49.9 83.2,51.1C84,51.6 84.8,51.8 85.7,51.5C86.4,51.3 87.1,50.5 87.7,49.7C88.6,48.6 89.5,47.3 91.1,47.4C92.7,47.4 93.9,48.9 94.6,49.9C95.1,50.6 94.9,51.5 94.2,52C93.5,52.5 92.6,52.3 92.1,51.6C91.5,50.8 91.2,50.5 91,50.4C90.7,50.6 90.3,51.1 90,51.5C89.1,52.6 88,54 86.2,54.4C85.9,54.6 85.4,54.7 84.9,54.7Z" style="fill:white;fill-rule:nonzero;"/>
        </g>
    </g>
</svg>
