<svg xmlns="http://www.w3.org/2000/svg" viewBox="0 0 180.79 63.89"><defs><style>.a{fill:#7daed3;}.a,.b,.c,.d,.e{fill-rule:evenodd;}.b{fill:#799900;}.c{fill:#939598;}.d{fill:#d18a00;}.e{fill:#ebb76e;}.f{fill:#6d6e71;}</style></defs><path class="a" d="M164.786,18.326l1.683.879a9.113,9.113,0,0,1-1.914,2.621,7.663,7.663,0,0,1-2.441,1.519,8.592,8.592,0,0,1-3.07.517,7.42,7.42,0,0,1-5.942-2.487,8.475,8.475,0,0,1-.333-10.866,7.433,7.433,0,0,1,6.158-2.931,7.666,7.666,0,0,1,6.34,3,8.389,8.389,0,0,1,1.716,5.3H153.01a6.321,6.321,0,0,0,1.731,4.422,5.532,5.532,0,0,0,4.13,1.722,6.669,6.669,0,0,0,2.311-.408,6.147,6.147,0,0,0,1.9-1.1,9.213,9.213,0,0,0,1.7-2.193Zm0-4.173a6.613,6.613,0,0,0-1.166-2.548,5.517,5.517,0,0,0-2.022-1.533,6.153,6.153,0,0,0-2.641-.587,5.717,5.717,0,0,0-3.931,1.466,6.643,6.643,0,0,0-1.812,3.2ZM145.623,2.228h2V7.976h3.169V9.7h-3.169v13.76h-2V9.7h-2.728V7.978h2.728V2.228Zm-25.657,0h2V7.976h3.169V9.7h-3.169v13.76h-2V9.7H117.24V7.978h2.726V2.228Zm-4.933,7.446L113.753,11a4.626,4.626,0,0,0-3.134-1.552,2.37,2.37,0,0,0-1.667.639,1.971,1.971,0,0,0-.7,1.494,2.2,2.2,0,0,0,.577,1.44,8.033,8.033,0,0,0,2.4,1.635,8.992,8.992,0,0,1,3.031,2.222,4.055,4.055,0,0,1,.786,2.432,4.366,4.366,0,0,1-1.342,3.232,4.6,4.6,0,0,1-3.358,1.325,5.922,5.922,0,0,1-2.572-.584,5.559,5.559,0,0,1-2.019-1.607l1.256-1.424a4.374,4.374,0,0,0,3.247,1.725,2.923,2.923,0,0,0,2.045-.773,2.366,2.366,0,0,0,.845-1.808,2.341,2.341,0,0,0-.556-1.522,9.011,9.011,0,0,0-2.516-1.65,8.037,8.037,0,0,1-2.862-2.136,4.013,4.013,0,0,1-.759-2.4,3.927,3.927,0,0,1,1.211-2.934,4.2,4.2,0,0,1,3.047-1.167,6.329,6.329,0,0,1,4.317,2.094Zm-12.776,8.653,1.681.879a9.113,9.113,0,0,1-1.914,2.621,7.653,7.653,0,0,1-2.442,1.519,8.571,8.571,0,0,1-3.069.517,7.429,7.429,0,0,1-5.945-2.487,8.374,8.374,0,0,1-2.142-5.616,8.266,8.266,0,0,1,1.814-5.25,7.425,7.425,0,0,1,6.153-2.931,7.678,7.678,0,0,1,6.347,3,8.385,8.385,0,0,1,1.709,5.3H90.48A6.313,6.313,0,0,0,92.21,20.3a5.529,5.529,0,0,0,4.129,1.722,6.651,6.651,0,0,0,2.308-.408,6.118,6.118,0,0,0,1.909-1.1,9.293,9.293,0,0,0,1.7-2.193Zm0-4.173a6.636,6.636,0,0,0-1.166-2.548,5.556,5.556,0,0,0-2.022-1.533,6.157,6.157,0,0,0-2.644-.587A5.711,5.711,0,0,0,92.5,10.951a6.643,6.643,0,0,0-1.812,3.2ZM75.7,2h2V23.459h-2V2Zm66.019,14.095v7.366h-1.969V20.8a8.538,8.538,0,0,1-2.82,2.289,7.886,7.886,0,0,1-9.046-1.613,7.978,7.978,0,0,1-2.334-5.8,7.842,7.842,0,0,1,2.356-5.722,7.686,7.686,0,0,1,5.664-2.376,8.21,8.21,0,0,1,3.672.81,7.73,7.73,0,0,1,4.476,7.386v.318Zm-7.982-6.6a6.036,6.036,0,0,0-5.325,3.113,6.254,6.254,0,0,0,.009,6.258,6.053,6.053,0,0,0,2.255,2.322,5.908,5.908,0,0,0,3.045.831,6.237,6.237,0,0,0,3.1-.821,5.746,5.746,0,0,0,2.261-2.235,6.341,6.341,0,0,0,.791-3.168,6.152,6.152,0,0,0-1.775-4.493A5.9,5.9,0,0,0,133.739,9.5Zm-61.478,6.6v7.366H70.292V20.8a8.617,8.617,0,0,1-2.82,2.289,7.891,7.891,0,0,1-9.05-1.613,7.985,7.985,0,0,1-2.333-5.8,7.847,7.847,0,0,1,2.355-5.722A7.7,7.7,0,0,1,64.111,7.58a8.215,8.215,0,0,1,3.672.81,7.735,7.735,0,0,1,4.476,7.386v.318ZM64.275,9.5a6.036,6.036,0,0,0-5.323,3.113,6.259,6.259,0,0,0,.008,6.258,6.117,6.117,0,0,0,2.258,2.322,5.912,5.912,0,0,0,3.045.831,6.243,6.243,0,0,0,3.106-.821,5.783,5.783,0,0,0,2.259-2.235,6.325,6.325,0,0,0,.791-3.168,6.152,6.152,0,0,0-1.775-4.493A5.906,5.906,0,0,0,64.275,9.5Zm-12.7,8.828a9.259,9.259,0,0,1-1.7,2.194,6.057,6.057,0,0,1-1.908,1.1,6.651,6.651,0,0,1-2.308.408,5.529,5.529,0,0,1-4.13-1.722,6.277,6.277,0,0,1-1.726-4.422H53.772a8.36,8.36,0,0,0-1.714-5.3,7.667,7.667,0,0,0-6.342-3,7.424,7.424,0,0,0-6.156,2.931,8.273,8.273,0,0,0-1.812,5.25,8.359,8.359,0,0,0,2.142,5.616,7.427,7.427,0,0,0,5.942,2.487,8.568,8.568,0,0,0,3.07-.517,7.626,7.626,0,0,0,2.444-1.519,9.178,9.178,0,0,0,1.914-2.621l-1.683-.88Zm0-4.173a6.635,6.635,0,0,0-1.162-2.548,5.549,5.549,0,0,0-2.023-1.533,6.155,6.155,0,0,0-2.642-.587,5.711,5.711,0,0,0-3.931,1.466,6.631,6.631,0,0,0-1.812,3.2ZM29.733,7.978h2.039v2.264a7.2,7.2,0,0,1,1.928-2,3.811,3.811,0,0,1,2.112-.664,3.655,3.655,0,0,1,1.769.527l-1.042,1.68a2.787,2.787,0,0,0-1.053-.268,2.9,2.9,0,0,0-1.928.815,5.142,5.142,0,0,0-1.411,2.542,24.177,24.177,0,0,0-.373,5.351v5.234H29.735V7.978Z" transform="translate(13.373 -2)"/><path class="b" d="M153.852,24.568h2v2.775a8.362,8.362,0,0,1,2.653-2.386,6.56,6.56,0,0,1,3.169-.788,5.525,5.525,0,0,1,3.09.882,5.25,5.25,0,0,1,1.986,2.376,12.573,12.573,0,0,1,.644,4.653v7.971h-2V32.665a18.154,18.154,0,0,0-.223-3.576,3.929,3.929,0,0,0-1.333-2.309A4.018,4.018,0,0,0,161.269,26a4.939,4.939,0,0,0-3.245,1.194,5.6,5.6,0,0,0-1.891,2.961,20.52,20.52,0,0,0-.286,4.212v5.682h-2V24.568Zm-10.5-.4a7.7,7.7,0,0,1,5.945,2.59,8.3,8.3,0,0,1-.119,11.265,8.224,8.224,0,0,1-11.665,0,8.288,8.288,0,0,1-.122-11.252,7.7,7.7,0,0,1,5.961-2.6Zm-.006,1.948a5.776,5.776,0,0,0-4.279,1.836,6.127,6.127,0,0,0-1.791,4.441,6.308,6.308,0,0,0,.814,3.135A5.77,5.77,0,0,0,140.3,37.77a6.293,6.293,0,0,0,6.1,0,5.753,5.753,0,0,0,2.208-2.241,6.291,6.291,0,0,0,.814-3.135,6.138,6.138,0,0,0-1.8-4.441,5.8,5.8,0,0,0-4.275-1.836ZM131.7,19.555a1.649,1.649,0,0,1,1.647,1.65,1.579,1.579,0,0,1-.481,1.153,1.6,1.6,0,0,1-1.166.486,1.645,1.645,0,0,1,0-3.29Zm-.991,5.013h2V40.054h-2V24.568Zm-6.982-5.749h2v5.749h2.57V26.29h-2.57V40.053h-2V26.29H121V24.568h2.726V18.82ZM70.781,24.568h2v2.775a8.4,8.4,0,0,1,2.655-2.386,6.569,6.569,0,0,1,3.169-.788,5.507,5.507,0,0,1,3.087.882,5.272,5.272,0,0,1,1.992,2.376,12.54,12.54,0,0,1,.644,4.653v7.971h-2V32.665a18.453,18.453,0,0,0-.222-3.576,3.928,3.928,0,0,0-1.331-2.309A4.018,4.018,0,0,0,78.2,26,4.953,4.953,0,0,0,74.951,27.2a5.629,5.629,0,0,0-1.889,2.961,20.6,20.6,0,0,0-.287,4.212v5.682h-2V24.568Zm-16.766,0h2V31.8a15.339,15.339,0,0,0,.287,3.64,4.075,4.075,0,0,0,1.639,2.252,4.986,4.986,0,0,0,2.878.824,4.88,4.88,0,0,0,2.837-.807A4.123,4.123,0,0,0,65.26,35.6a15.041,15.041,0,0,0,.3-3.8V24.567H67.6v7.6a12.032,12.032,0,0,1-.748,4.824,5.727,5.727,0,0,1-2.256,2.542,8.26,8.26,0,0,1-7.562,0,5.671,5.671,0,0,1-2.269-2.563,12.514,12.514,0,0,1-.748-4.946V24.568Zm-10.068-.4a7.7,7.7,0,0,1,5.945,2.59,8.3,8.3,0,0,1-.122,11.265,7.6,7.6,0,0,1-5.823,2.426A7.63,7.63,0,0,1,38.1,38.024a8.281,8.281,0,0,1-.12-11.252,7.7,7.7,0,0,1,5.962-2.6Zm-.008,1.948a5.783,5.783,0,0,0-4.283,1.836,6.133,6.133,0,0,0-1.791,4.441,6.308,6.308,0,0,0,.814,3.135,5.746,5.746,0,0,0,2.2,2.241,6.293,6.293,0,0,0,6.1,0,5.708,5.708,0,0,0,2.206-2.241,6.262,6.262,0,0,0,.817-3.135,6.131,6.131,0,0,0-1.8-4.441,5.781,5.781,0,0,0-4.272-1.836ZM35.922,18.59v1.951a4.985,4.985,0,0,0-1.886-.469,1.833,1.833,0,0,0-.97.234,1.034,1.034,0,0,0-.486.539,7.509,7.509,0,0,0-.1,1.628l0,2.094h3.24V26.29H32.477l-.009,13.763h-2V26.29H28.427V24.568h2.042v-2.42a6.512,6.512,0,0,1,.308-2.376,2.4,2.4,0,0,1,1.041-1.144,3.4,3.4,0,0,1,1.776-.438,8.481,8.481,0,0,1,2.328.4Zm66.689,13.654a7.736,7.736,0,0,1-4.476,7.389,8.2,8.2,0,0,1-3.672.807A7.7,7.7,0,0,1,88.8,38.064a7.832,7.832,0,0,1-2.356-5.722,7.988,7.988,0,0,1,2.331-5.8,7.874,7.874,0,0,1,9.048-1.613,8.462,8.462,0,0,1,2.822,2.289V18.787h1.97V32.244Zm-3.617,4.471a6.152,6.152,0,0,0,1.775-4.493,6.366,6.366,0,0,0-.792-3.171,5.793,5.793,0,0,0-2.259-2.235A6.251,6.251,0,0,0,94.611,26a5.91,5.91,0,0,0-3.042.831,6.1,6.1,0,0,0-2.258,2.328,6.253,6.253,0,0,0-.009,6.252,6.036,6.036,0,0,0,5.326,3.113,5.884,5.884,0,0,0,4.365-1.8Zm21.485-4.033v7.371H118.51V37.39a8.536,8.536,0,0,1-2.819,2.292,7.661,7.661,0,0,1-3.419.767,7.584,7.584,0,0,1-5.628-2.383,7.973,7.973,0,0,1-2.334-5.8,7.822,7.822,0,0,1,2.359-5.722,7.668,7.668,0,0,1,5.662-2.376,8.253,8.253,0,0,1,3.673.807,7.741,7.741,0,0,1,4.473,7.386v.319ZM112.5,26.094a6.038,6.038,0,0,0-3.078.815,5.948,5.948,0,0,0-2.245,2.3,6.238,6.238,0,0,0,.006,6.255,6.092,6.092,0,0,0,2.258,2.325,5.923,5.923,0,0,0,3.042.831,6.285,6.285,0,0,0,3.1-.821,5.766,5.766,0,0,0,2.261-2.235,6.366,6.366,0,0,0,.791-3.168,6.146,6.146,0,0,0-1.773-4.493,5.859,5.859,0,0,0-4.365-1.8Z" transform="translate(12.638 7.039)"/><path class="c" d="M44.439,41.667c0-2.6-7.195-4.7-16.07-4.7s-16.074,2.1-16.074,4.7,7.2,4.7,16.074,4.7,16.07-2.107,16.07-4.7Z" transform="translate(3.565 17.52)"/><path class="d" d="M27.432,34.817c0-2.04-5.658-3.7-12.643-3.7s-12.645,1.658-12.645,3.7,5.659,3.7,12.645,3.7,12.643-1.655,12.643-3.7Z" transform="translate(-2.144 14.257)"/><path class="e" d="M30.179,25.673c0-1.689-4.676-3.056-10.451-3.056S9.277,23.984,9.277,25.673s4.678,3.059,10.451,3.059,10.451-1.37,10.451-3.059Z" transform="translate(1.868 9.51)"/><path class="f" d="M63.733,39.733a.721.721,0,0,1-.091.362.608.608,0,0,1-.264.24.973.973,0,0,1-.423.089H61.812V39.044h1.144a.94.94,0,0,1,.423.086.615.615,0,0,1,.264.243.7.7,0,0,1,.091.36Zm.086,2.471a.8.8,0,0,1-.089.374.6.6,0,0,1-.256.265.922.922,0,0,1-.442.1H61.813V41.474h1.219a.922.922,0,0,1,.442.1.626.626,0,0,1,.256.262.8.8,0,0,1,.089.369Zm1.17.061a1.75,1.75,0,0,0-.078-.524,1.364,1.364,0,0,0-.2-.386,1.456,1.456,0,0,0-.269-.268,1.415,1.415,0,0,0-.281-.167,1.066,1.066,0,0,0,.241-.159,1.606,1.606,0,0,0,.244-.265,1.331,1.331,0,0,0,.183-.362,1.368,1.368,0,0,0,.073-.45,1.731,1.731,0,0,0-.222-.894,1.477,1.477,0,0,0-.63-.581,2.3,2.3,0,0,0-1-.207H60.635v5.99h2.512a2.292,2.292,0,0,0,.741-.115,1.609,1.609,0,0,0,.581-.326,1.511,1.511,0,0,0,.381-.542,1.85,1.85,0,0,0,.139-.743Z" transform="translate(30.753 18.1)"/><path class="f" d="M67.94,39.835a.8.8,0,0,1-.109.414.669.669,0,0,1-.294.274.988.988,0,0,1-.45.106h-1.1V39.046h1.1a1.029,1.029,0,0,1,.45.1.692.692,0,0,1,.294.277.778.778,0,0,1,.109.411Zm1.417,4.158-1.341-2.584a1.851,1.851,0,0,0,.417-.213,1.832,1.832,0,0,0,.352-.335,1.55,1.55,0,0,0,.239-.453,1.729,1.729,0,0,0,.091-.572,1.913,1.913,0,0,0-.131-.709,1.736,1.736,0,0,0-1-.977A2.164,2.164,0,0,0,67.168,38H64.81v5.99h1.175V41.6h.842L68,43.992h1.358Z" transform="translate(33.101 18.1)"/><path class="f" d="M70.134,43.992V38H68.962v5.99Z" transform="translate(35.436 18.1)"/><path class="f" d="M75.253,39.046V38H70.944v1.044h1.57v4.946h1.17V39.046Z" transform="translate(36.551 18.1)"/><path class="f" d="M76.107,43.992V38H74.935v5.99Z" transform="translate(38.796 18.1)"/><path class="f" d="M81.278,42.243a2.18,2.18,0,0,0-.111-.721,1.4,1.4,0,0,0-.352-.549,1.493,1.493,0,0,0-.466-.293,2.7,2.7,0,0,0-.684-.17l-.709-.1a1.338,1.338,0,0,1-.323-.089.74.74,0,0,1-.231-.15.545.545,0,0,1-.137-.2.626.626,0,0,1-.039-.226.758.758,0,0,1,.1-.38.707.707,0,0,1,.311-.274,1.2,1.2,0,0,1,.516-.1,2.335,2.335,0,0,1,.412.028,1.627,1.627,0,0,1,.419.115,1.409,1.409,0,0,1,.4.268l.742-.734a2.572,2.572,0,0,0-.548-.4,2.471,2.471,0,0,0-.634-.226,3.733,3.733,0,0,0-.758-.073,2.752,2.752,0,0,0-.873.137,1.847,1.847,0,0,0-.659.371,1.587,1.587,0,0,0-.412.575,1.821,1.821,0,0,0-.147.737,1.916,1.916,0,0,0,.106.67,1.353,1.353,0,0,0,.323.508,1.606,1.606,0,0,0,.487.313,2.521,2.521,0,0,0,.675.179l.723.1a1.8,1.8,0,0,1,.237.051.615.615,0,0,1,.169.067.557.557,0,0,1,.128.1.576.576,0,0,1,.139.217.831.831,0,0,1,.045.29.641.641,0,0,1-.272.549,1.417,1.417,0,0,1-.791.192,3.3,3.3,0,0,1-.544-.048,1.921,1.921,0,0,1-.487-.159,1.513,1.513,0,0,1-.422-.3l-.759.757a2.671,2.671,0,0,0,.628.469,2.714,2.714,0,0,0,.723.246,4.345,4.345,0,0,0,.842.073,3.083,3.083,0,0,0,.878-.118,2.24,2.24,0,0,0,.7-.354,1.629,1.629,0,0,0,.648-1.343Z" transform="translate(39.875 18.08)"/><path class="f" d="M85.392,43.992V38H84.217v2.447H82.189V38H81.014v5.99h1.175V41.483h2.028v2.509Z" transform="translate(42.215 18.1)"/><path class="f" d="M91.955,42.166H90.764a1.383,1.383,0,0,1-.192.45.905.905,0,0,1-.336.293,1.073,1.073,0,0,1-.484.109,1.1,1.1,0,0,1-.427-.079A.816.816,0,0,1,89,42.708a.892.892,0,0,1-.15-.213,1.178,1.178,0,0,1-.087-.295,3.494,3.494,0,0,1-.047-.469c-.009-.189-.011-.429-.011-.715s0-.53.011-.718a3.716,3.716,0,0,1,.047-.466,1.033,1.033,0,0,1,.087-.295.782.782,0,0,1,.15-.21.793.793,0,0,1,.323-.234,1.1,1.1,0,0,1,.427-.079,1.078,1.078,0,0,1,.484.106.91.91,0,0,1,.336.295,1.366,1.366,0,0,1,.192.447h1.191a2.473,2.473,0,0,0-.408-1.032,1.976,1.976,0,0,0-.761-.642,2.432,2.432,0,0,0-1.041-.22,2.207,2.207,0,0,0-1.62.658,1.794,1.794,0,0,0-.316.418,1.64,1.64,0,0,0-.17.485,10.788,10.788,0,0,0,0,2.976,1.768,1.768,0,0,0,.17.478,1.685,1.685,0,0,0,.316.422,2.216,2.216,0,0,0,1.62.654,2.433,2.433,0,0,0,1.037-.22,1.963,1.963,0,0,0,.759-.639,2.422,2.422,0,0,0,.412-1.035Z" transform="translate(45.883 18.081)"/><path class="f" d="M94.6,41.015c0,.287-.006.524-.013.712a4.006,4.006,0,0,1-.05.469,1.1,1.1,0,0,1-.089.293.812.812,0,0,1-.147.207.931.931,0,0,1-.314.234,1.16,1.16,0,0,1-.434.089,1.134,1.134,0,0,1-.433-.089.9.9,0,0,1-.322-.234.771.771,0,0,1-.145-.207,1.145,1.145,0,0,1-.087-.293,2.931,2.931,0,0,1-.042-.469c-.009-.189-.016-.425-.016-.712s.006-.527.016-.715a3.079,3.079,0,0,1,.042-.466,1.033,1.033,0,0,1,.087-.295.84.84,0,0,1,.145-.207.861.861,0,0,1,.322-.231,1.058,1.058,0,0,1,.433-.089,1.044,1.044,0,0,1,.434.089.884.884,0,0,1,.314.231.993.993,0,0,1,.147.207,1.1,1.1,0,0,1,.089.295,3.634,3.634,0,0,1,.05.466c.006.189.013.425.013.715Zm1.172,0c0-.259,0-.5-.011-.728a4.1,4.1,0,0,0-.061-.626,2.228,2.228,0,0,0-.173-.552,1.892,1.892,0,0,0-.353-.485,2.2,2.2,0,0,0-.711-.486,2.43,2.43,0,0,0-.909-.17,2.465,2.465,0,0,0-.912.17,2.217,2.217,0,0,0-.714.486,1.712,1.712,0,0,0-.348.485,2.091,2.091,0,0,0-.177.552,4.564,4.564,0,0,0-.059.626c0,.228-.008.469-.008.728s0,.5.008.721a4.865,4.865,0,0,0,.059.633,2.109,2.109,0,0,0,.177.549,1.763,1.763,0,0,0,.348.486,2.155,2.155,0,0,0,.714.482,2.237,2.237,0,0,0,.912.173,2.207,2.207,0,0,0,.909-.173,2.135,2.135,0,0,0,.711-.482,1.954,1.954,0,0,0,.353-.486,2.086,2.086,0,0,0,.173-.549,4.16,4.16,0,0,0,.061-.633c.011-.223.011-.466.011-.721Z" transform="translate(48.017 18.081)"/><path class="f" d="M99.454,43.992V42.948H96.732V38H95.559v5.99Z" transform="translate(50.395 18.1)"/><path class="f" d="M103.578,41.94V38h-1.162v3.9a1.24,1.24,0,0,1-.133.591.9.9,0,0,1-.361.377,1.145,1.145,0,0,1-.552.134,1.122,1.122,0,0,1-.55-.134.874.874,0,0,1-.359-.377,1.269,1.269,0,0,1-.128-.591V38H99.159V41.94a2.164,2.164,0,0,0,.172.862,1.927,1.927,0,0,0,.473.664,2.166,2.166,0,0,0,.7.425,2.466,2.466,0,0,0,.867.15,2.42,2.42,0,0,0,.864-.15,2.154,2.154,0,0,0,.7-.425,1.957,1.957,0,0,0,.469-.664,2.111,2.111,0,0,0,.172-.862Z" transform="translate(52.42 18.1)"/><path class="f" d="M108.886,43.992V38H107.73l-1.562,3.238L104.6,38h-1.156v5.99h1.173V40.5l1.156,2.27h.791l1.145-2.27v3.492Z" transform="translate(54.831 18.1)"/><path class="f" d="M111.542,39.733a.691.691,0,0,1-.092.362.613.613,0,0,1-.263.24.988.988,0,0,1-.423.089h-1.145V39.044h1.145a.954.954,0,0,1,.423.086.62.62,0,0,1,.263.243.682.682,0,0,1,.092.36Zm.081,2.471a.776.776,0,0,1-.084.374.6.6,0,0,1-.256.265.915.915,0,0,1-.441.1h-1.222V41.474h1.222a.916.916,0,0,1,.441.1.626.626,0,0,1,.256.262.778.778,0,0,1,.084.369Zm1.173.061a1.749,1.749,0,0,0-.078-.524,1.288,1.288,0,0,0-.2-.386,1.506,1.506,0,0,0-.269-.268,1.312,1.312,0,0,0-.284-.167,1.209,1.209,0,0,0,.247-.159,1.456,1.456,0,0,0,.237-.265,1.255,1.255,0,0,0,.186-.362,1.665,1.665,0,0,0,.075-.45,1.812,1.812,0,0,0-.223-.894,1.48,1.48,0,0,0-.634-.581,2.26,2.26,0,0,0-1-.207h-2.409v5.99h2.511a2.282,2.282,0,0,0,.739-.115,1.616,1.616,0,0,0,.583-.326,1.535,1.535,0,0,0,.383-.542,1.879,1.879,0,0,0,.137-.743Z" transform="translate(57.642 18.1)"/><path class="f" d="M113.791,43.992V38h-1.172v5.99Z" transform="translate(59.99 18.1)"/><path class="f" d="M117.872,41.946h-1.492l.759-2.175.733,2.175Zm1.889,2.046L117.568,38h-.92l-2.181,5.99h1.222l.361-1.063h2.134l.358,1.063Z" transform="translate(61.03 18.1)"/></svg>