<?xml version="1.0" encoding="UTF-8" standalone="no"?>
<!DOCTYPE svg PUBLIC "-//W3C//DTD SVG 1.1//EN" "http://www.w3.org/Graphics/SVG/1.1/DTD/svg11.dtd">
<svg width="100%" height="100%" viewBox="0 0 62 73" version="1.1" xmlns="http://www.w3.org/2000/svg" xmlns:xlink="http://www.w3.org/1999/xlink" xml:space="preserve" style="fill-rule:evenodd;clip-rule:evenodd;stroke-linejoin:round;stroke-miterlimit:1.41421;">
    <g id="Artboard2" transform="matrix(1,0,0,1,-19.478,-20.7465)">
        <rect x="19.478" y="20.747" width="61.427" height="72.068" style="fill:none;"/>
        <clipPath id="_clip1">
            <rect x="19.478" y="20.747" width="61.427" height="72.068"/>
        </clipPath>
        <g clip-path="url(#_clip1)">
            <g id="Artboard1" transform="matrix(1,0,0,1,0,-3.84477)">
                <rect x="0" y="3.845" width="100" height="96.644" style="fill:none;"/>
                <g>
                    <g transform="matrix(0.67209,0,0,0.67209,14.1429,20.4926)">
                        <path d="M42.3,29.4C45.3,29.4 47.7,27 47.7,24C47.7,21 45.3,18.6 42.3,18.6C39.3,18.6 36.9,21 36.9,24C36.9,27 39.3,29.4 42.3,29.4ZM42.3,20.6C44.2,20.6 45.7,22.1 45.7,24C45.7,25.9 44.2,27.4 42.3,27.4C40.4,27.4 38.9,25.9 38.9,24C38.9,22.1 40.4,20.6 42.3,20.6Z" style="fill:white;fill-rule:nonzero;"/>
                    </g>
                    <g transform="matrix(0.663955,0,0,0.663955,18.5949,16.3058)">
                        <path d="M52.7,41.4C55.7,41.4 58.1,39 58.1,36C58.1,33 55.7,30.6 52.7,30.6C49.7,30.6 47.3,33 47.3,36C47.3,39 49.8,41.4 52.7,41.4ZM52.7,32.6C54.6,32.6 56.1,34.1 56.1,36C56.1,37.9 54.6,39.4 52.7,39.4C50.8,39.4 49.3,37.9 49.3,36C49.3,34.1 50.9,32.6 52.7,32.6Z" style="fill:white;fill-rule:nonzero;"/>
                    </g>
                    <g transform="matrix(0.663955,0,0,0.663955,15.0096,7.05091)">
                        <path d="M52.7,41.4C55.7,41.4 58.1,39 58.1,36C58.1,33 55.7,30.6 52.7,30.6C49.7,30.6 47.3,33 47.3,36C47.3,39 49.8,41.4 52.7,41.4ZM52.7,32.6C54.6,32.6 56.1,34.1 56.1,36C56.1,37.9 54.6,39.4 52.7,39.4C50.8,39.4 49.3,37.9 49.3,36C49.3,34.1 50.9,32.6 52.7,32.6Z" style="fill:white;fill-rule:nonzero;"/>
                    </g>
                    <path d="M70.3,87.8C69.4,86.7 67.7,84.8 65.8,82.6C62,78.3 54.8,70.2 54.6,68.7L54.6,53.6C54.7,53.5 55,53.4 55.2,53.3C56.1,52.9 57.7,52.2 57.7,49.7C57.7,46.7 55.3,45.7 53.7,45.7L46,45.7C44.4,45.7 42,46.8 42,49.7C42,52.1 43.6,52.8 44.5,53.3C44.7,53.4 45,53.5 45,53.5L45,68.7C44.7,70.3 37.6,78.3 33.8,82.6C31.8,84.8 30.2,86.7 29.3,87.8C28.2,89.2 28.4,90.3 28.7,90.9C29.6,92.7 32.8,94.7 50.6,94.7C67.2,94.7 70.1,92.5 70.9,90.8C71.2,90.2 71.4,89.1 70.3,87.8ZM69.1,90C68.8,90.6 66.6,92.7 50.6,92.7C33.6,92.7 30.9,90.8 30.5,90C30.4,89.7 30.6,89.3 30.9,89C31.8,87.9 33.4,86 35.4,83.8C43.4,74.7 47,70.4 47,68.6L47,53.5C47,52.2 46,51.8 45.3,51.4C44.5,51 44,50.8 44,49.7C44,47.8 45.6,47.7 46,47.7L53.6,47.7C53.9,47.7 55.6,47.8 55.6,49.7C55.6,50.8 55.1,51.1 54.3,51.4C53.6,51.7 52.6,52.2 52.6,53.5L52.6,68.7C52.6,70.4 56.2,74.8 64.3,83.9C66.2,86.1 67.9,88 68.8,89C69.1,89.4 69.2,89.8 69.1,90Z" style="fill:white;fill-rule:nonzero;"/>
                </g>
            </g>
        </g>
    </g>
</svg>
